<?xml version="1.0" encoding="UTF-8" standalone="no"?>
<!-- Created with Inkscape (http://www.inkscape.org/) -->

<svg
   xmlns:dc="http://purl.org/dc/elements/1.1/"
   xmlns:cc="http://creativecommons.org/ns#"
   xmlns:rdf="http://www.w3.org/1999/02/22-rdf-syntax-ns#"
   xmlns:svg="http://www.w3.org/2000/svg"
   xmlns="http://www.w3.org/2000/svg"
   xmlns:sodipodi="http://sodipodi.sourceforge.net/DTD/sodipodi-0.dtd"
   xmlns:inkscape="http://www.inkscape.org/namespaces/inkscape"
   width="150mm"
   height="75mm"
   viewBox="0 0 150 75"
   version="1.1"
   id="svg3787"
   inkscape:version="0.92.3 (2405546, 2018-03-11)"
   sodipodi:docname="baytles.svg"
   inkscape:export-filename="/home/kristian/Desktop/baytles.png"
   inkscape:export-xdpi="200.17"
   inkscape:export-ydpi="200.17">
  <defs
     id="defs3781" />
  <sodipodi:namedview
     id="base"
     pagecolor="#ffffff"
     bordercolor="#666666"
     borderopacity="1.0"
     inkscape:pageopacity="1"
     inkscape:pageshadow="2"
     inkscape:zoom="1.979899"
     inkscape:cx="316.61586"
     inkscape:cy="117.23936"
     inkscape:document-units="mm"
     inkscape:current-layer="layer1"
     showgrid="false"
     inkscape:window-width="1853"
     inkscape:window-height="1025"
     inkscape:window-x="67"
     inkscape:window-y="27"
     inkscape:window-maximized="1" />
  <metadata
     id="metadata3784">
    <rdf:RDF>
      <cc:Work
         rdf:about="">
        <dc:format>image/svg+xml</dc:format>
        <dc:type
           rdf:resource="http://purl.org/dc/dcmitype/StillImage" />
        <dc:title></dc:title>
      </cc:Work>
    </rdf:RDF>
  </metadata>
  <g
     inkscape:label="Layer 1"
     inkscape:groupmode="layer"
     id="layer1"
     transform="translate(0,-222)">
    <g
       transform="matrix(0.41752083,0,0,0.41752083,10.268423,220.68846)"
       id="g64">
      <path
         inkscape:connector-curvature="0"
         d="m 15.84235,38.401 c 1.64172,0 2.9726,-1.33087 2.9726,-2.9726 0,-1.64166 -1.33087,-2.97253 -2.9726,-2.97253 -1.64166,0 -2.97253,1.33087 -2.97253,2.97253 -1e-5,1.64173 1.33086,2.9726 2.97253,2.9726 z"
         id="path32" />
      <path
         inkscape:connector-curvature="0"
         d="M 22.78442,56.98376 C 22.69647,56.63378 22.49908,56.32067 22.2221,56.09008 L 16.4146,51.26592 V 41.38701 C 16.41472,41.27483 16.40319,41.1624 16.38079,41.05113 16.36938,40.99418 16.34814,40.94139 16.33117,40.8867 16.3153,40.83537 16.3045,40.78318 16.2835,40.73295 c -0.08722,-0.20886 -0.21484,-0.3963 -0.37329,-0.5531 -0.03546,-0.03516 -0.07587,-0.0625 -0.11383,-0.09399 -0.04706,-0.03912 -0.09174,-0.08057 -0.14288,-0.11444 -0.04181,-0.02765 -0.08722,-0.04749 -0.13104,-0.07117 -0.05322,-0.02899 -0.10468,-0.06055 -0.16113,-0.0838 -0.04626,-0.01904 -0.09509,-0.02954 -0.14276,-0.04431 -0.05731,-0.01788 -0.1131,-0.03925 -0.17285,-0.05103 -0.09918,-0.01965 -0.2002,-0.02856 -0.30164,-0.0304 -0.0096,-1.8e-4 -0.01843,-0.0028 -0.02808,-0.0028 -2.4e-4,0 -3.7e-4,6e-5 -6.1e-4,6e-5 -0.11169,-6e-5 -0.22369,0.01147 -0.33453,0.03369 -0.06006,0.01202 -0.11572,0.03418 -0.17334,0.05237 -0.04816,0.0152 -0.09723,0.02509 -0.14435,0.0448 -0.10596,0.04419 -0.20667,0.09839 -0.30048,0.16217 l -6.2558,4.22504 c -0.46777,0.31561 -0.74811,0.84314 -0.74811,1.40753 v 4.84326 c 0,0.93805 0.76056,1.69861 1.69861,1.69861 0.93805,0 1.69861,-0.76056 1.69861,-1.69861 V 46.5159 l 2.86139,-1.93268 v 7.47974 c 0,0.50507 0.22479,0.98364 0.61298,1.3067 l 5.99323,4.97888 1.98309,7.90955 c 0.19403,0.77136 0.8858,1.28601 1.64636,1.28601 0.13684,0 0.27618,-0.0166 0.41467,-0.05145 0.90985,-0.22809 1.46307,-1.15076 1.23499,-2.06061 z"
         id="path34" />
      <path
         inkscape:connector-curvature="0"
         d="m 18.1134,46.44324 v 2.59741 c 0,0.29944 0.13214,0.58362 0.36108,0.77667 l 2.1087,1.77747 c 0.31848,0.26874 0.70746,0.39978 1.09399,0.39978 0.58942,0 1.17389,-0.30499 1.49805,-0.89325 0.39532,-0.71741 0.1662,-1.62488 -0.46008,-2.15277 L 19.16375,45.9549 C 18.74841,45.60486 18.1134,45.90009 18.1134,46.44324 Z"
         id="path36" />
      <path
         inkscape:connector-curvature="0"
         d="m 13.19,55.19916 c -0.49817,-0.41412 -1.2453,-0.30536 -1.60474,0.23358 l -6.27179,9.40332 c -0.45612,0.68384 -0.42407,1.62366 0.15906,2.20312 0.3446,0.34241 0.78009,0.50446 1.20831,0.50446 0.54901,0 1.08734,-0.26538 1.41492,-0.75598 l 6.24066,-9.36688 c 0.30933,-0.46429 0.21851,-1.0871 -0.21051,-1.44366 z"
         id="path38" />
      <path
         inkscape:connector-curvature="0"
         d="m 39.1936,38.401 c 1.64172,0 2.9726,-1.33087 2.9726,-2.9726 0,-1.64166 -1.33087,-2.97253 -2.9726,-2.97253 -1.64166,0 -2.97253,1.33087 -2.97253,2.97253 0,1.64173 1.33087,2.9726 2.97253,2.9726 z"
         id="path40" />
      <path
         inkscape:connector-curvature="0"
         d="m 46.13568,56.98376 c -0.08789,-0.34998 -0.28534,-0.66309 -0.56232,-0.89368 l -5.80743,-4.82416 v -9.87939 -6e-5 c 6e-5,-0.112 -0.01147,-0.22424 -0.03381,-0.33533 -0.01172,-0.05823 -0.03326,-0.1123 -0.05078,-0.16827 -0.01562,-0.04993 -0.02606,-0.10077 -0.04645,-0.1496 -0.08722,-0.20911 -0.21497,-0.39667 -0.37354,-0.55359 -0.03479,-0.03442 -0.07446,-0.06116 -0.11163,-0.0921 -0.04767,-0.03979 -0.09314,-0.08179 -0.14508,-0.11627 -0.04132,-0.02734 -0.08618,-0.04681 -0.12946,-0.07031 -0.05371,-0.0293 -0.10565,-0.06104 -0.16272,-0.08453 -0.0459,-0.01886 -0.09418,-0.02924 -0.14142,-0.04395 -0.05774,-0.01807 -0.11383,-0.03949 -0.17407,-0.05139 -0.09875,-0.01959 -0.19934,-0.02832 -0.30023,-0.03021 -0.01001,-1.8e-4 -0.01935,-0.003 -0.02942,-0.003 -2.4e-4,0 -4.3e-4,6e-5 -6.7e-4,6e-5 -0.11169,-6e-5 -0.22369,0.01141 -0.33453,0.03369 -0.05927,0.01184 -0.11426,0.03381 -0.17114,0.0517 -0.04895,0.01538 -0.09869,0.02545 -0.14661,0.04547 -0.10583,0.04419 -0.20636,0.09827 -0.30011,0.16193 l -6.2561,4.22528 c -0.46777,0.31561 -0.74811,0.84314 -0.74811,1.40753 v 4.84326 c 0,0.93805 0.76056,1.69861 1.69861,1.69861 0.93805,0 1.69861,-0.76056 1.69861,-1.69861 v -3.94092 l 2.86145,-1.93268 v 7.47974 c 0,0.50507 0.22473,0.98364 0.61292,1.3067 l 5.99323,4.97888 1.98309,7.90955 c 0.19409,0.77136 0.8858,1.28601 1.64636,1.28601 0.13684,0 0.27618,-0.0166 0.41467,-0.05145 0.90985,-0.22809 1.46307,-1.15076 1.23499,-2.06061 z"
         id="path42" />
      <path
         inkscape:connector-curvature="0"
         d="m 41.46466,46.44324 v 2.59741 c 0,0.29944 0.13214,0.58362 0.36108,0.77667 l 2.1087,1.77747 c 0.31848,0.26874 0.70746,0.39978 1.09399,0.39978 0.58942,0 1.17389,-0.30499 1.49805,-0.89325 0.39532,-0.71741 0.1662,-1.62488 -0.46008,-2.15277 L 42.51501,45.9549 c -0.41534,-0.35004 -1.05035,-0.05481 -1.05035,0.48834 z"
         id="path44" />
      <path
         inkscape:connector-curvature="0"
         d="m 36.54126,55.19916 c -0.49817,-0.41412 -1.2453,-0.30536 -1.60474,0.23358 l -6.27173,9.40332 c -0.45618,0.68384 -0.42413,1.62366 0.159,2.20312 0.3446,0.34241 0.78009,0.50446 1.20831,0.50446 0.54901,0 1.08734,-0.26538 1.41492,-0.75598 l 6.24066,-9.36688 c 0.30933,-0.46429 0.21851,-1.0871 -0.21051,-1.44366 z"
         id="path46" />
      <path
         inkscape:connector-curvature="0"
         d="m 62.54492,38.401 c 1.64166,0 2.97253,-1.33087 2.97253,-2.9726 0,-1.64166 -1.33087,-2.97253 -2.97253,-2.97253 -1.64172,0 -2.9726,1.33087 -2.9726,2.97253 1e-5,1.64173 1.33088,2.9726 2.9726,2.9726 z"
         id="path48" />
      <path
         inkscape:connector-curvature="0"
         d="m 69.48694,56.98376 c -0.08789,-0.34998 -0.28528,-0.66309 -0.56232,-0.89368 l -5.80743,-4.82416 v -9.87939 -6e-5 c 1.2e-4,-0.112 -0.01147,-0.22424 -0.03381,-0.33533 C 63.07166,40.99291 63.05012,40.93884 63.0326,40.88287 63.01698,40.83294 63.00654,40.7821 62.98615,40.73327 62.89899,40.52429 62.77131,40.33672 62.6128,40.17986 62.57758,40.14495 62.53748,40.11785 62.49982,40.08654 62.45246,40.04711 62.40735,40.00549 62.3559,39.97131 62.31458,39.94397 62.26972,39.9245 62.22644,39.901 c -0.05371,-0.0293 -0.10565,-0.06104 -0.16272,-0.08453 -0.04608,-0.01892 -0.09448,-0.0293 -0.14191,-0.04407 -0.05762,-0.01794 -0.11353,-0.03949 -0.17352,-0.05127 -0.09882,-0.01959 -0.1994,-0.02844 -0.30042,-0.03027 -0.01001,-1.8e-4 -0.01929,-0.0029 -0.0293,-0.0029 -2.4e-4,0 -4.3e-4,6e-5 -6.7e-4,6e-5 -0.11169,-6e-5 -0.22369,0.01141 -0.33453,0.03369 -0.05927,0.01184 -0.11426,0.03381 -0.17114,0.0517 -0.04889,0.01538 -0.09875,0.02545 -0.14661,0.04547 -0.10583,0.04419 -0.20636,0.09827 -0.30011,0.16193 l -6.2561,4.22528 c -0.46777,0.31561 -0.74811,0.84314 -0.74811,1.40753 v 4.84326 c 0,0.93805 0.76056,1.69861 1.69861,1.69861 0.93805,0 1.69861,-0.76056 1.69861,-1.69861 v -3.94092 l 2.86145,-1.93268 v 7.47974 c 0,0.50507 0.22473,0.98364 0.61292,1.3067 l 5.99323,4.97888 1.98309,7.90955 c 0.19409,0.77136 0.8858,1.28601 1.64636,1.28601 0.13684,0 0.27618,-0.0166 0.41467,-0.05145 0.90985,-0.22809 1.46307,-1.15076 1.23499,-2.06061 z"
         id="path50" />
      <path
         inkscape:connector-curvature="0"
         d="m 64.81592,46.44324 v 2.59741 c 0,0.29944 0.13214,0.58362 0.36115,0.77667 l 2.10864,1.77747 c 0.31848,0.26874 0.70752,0.39978 1.09399,0.39978 0.58942,0 1.17389,-0.30499 1.49805,-0.89325 0.39532,-0.71741 0.16626,-1.62488 -0.46008,-2.15277 L 65.86628,45.9549 c -0.41535,-0.35004 -1.05036,-0.05481 -1.05036,0.48834 z"
         id="path52" />
      <path
         inkscape:connector-curvature="0"
         d="m 59.89252,55.19916 c -0.49811,-0.41412 -1.2453,-0.30536 -1.60474,0.23358 l -6.27173,9.40332 c -0.45612,0.68384 -0.42413,1.62366 0.159,2.20312 0.3446,0.34241 0.78009,0.50446 1.20831,0.50446 0.54907,0 1.08734,-0.26538 1.41492,-0.75598 l 6.24066,-9.36688 c 0.30933,-0.46429 0.21851,-1.0871 -0.21051,-1.44366 z"
         id="path54" />
      <path
         inkscape:connector-curvature="0"
         d="m 85.88831,38.401 c 1.64172,0 2.9726,-1.33087 2.9726,-2.9726 0,-1.64166 -1.33087,-2.97253 -2.9726,-2.97253 -1.64166,0 -2.97253,1.33087 -2.97253,2.97253 -1e-5,1.64173 1.33086,2.9726 2.97253,2.9726 z"
         id="path56" />
      <path
         inkscape:connector-curvature="0"
         d="m 94.94867,65.43207 -2.11829,-8.4483 c -0.08795,-0.34998 -0.28534,-0.66309 -0.56232,-0.89368 l -5.8075,-4.82416 V 41.38702 C 86.46068,41.27484 86.44915,41.16241 86.42675,41.05114 86.41534,40.99419 86.3941,40.9414 86.37713,40.88671 86.36126,40.83538 86.35046,40.78319 86.32946,40.73296 86.24224,40.5241 86.11462,40.33666 85.95617,40.17986 85.92071,40.1447 85.8803,40.11736 85.84234,40.08587 85.79528,40.04675 85.7506,40.0053 85.69946,39.97143 85.65765,39.94378 85.61224,39.92394 85.56842,39.90026 85.5152,39.87127 85.46374,39.83971 85.40729,39.81646 85.36103,39.79742 85.3122,39.78692 85.26453,39.77215 c -0.05731,-0.01788 -0.1131,-0.03925 -0.17285,-0.05103 -0.09918,-0.01965 -0.2002,-0.02856 -0.30164,-0.0304 -0.0096,-1.8e-4 -0.01843,-0.0028 -0.02808,-0.0028 -2.4e-4,0 -3.7e-4,6e-5 -6.1e-4,6e-5 -0.11169,-6e-5 -0.22369,0.01147 -0.33453,0.03369 -0.06006,0.01202 -0.11572,0.03418 -0.17334,0.05237 -0.04816,0.0152 -0.09723,0.02509 -0.14435,0.0448 -0.10596,0.04419 -0.20667,0.09839 -0.30048,0.16217 l -6.2558,4.22504 c -0.46777,0.31561 -0.74811,0.84314 -0.74811,1.40753 v 4.84326 c 0,0.93805 0.76056,1.69861 1.69861,1.69861 0.93805,0 1.69861,-0.76056 1.69861,-1.69861 v -3.94092 l 2.86139,-1.93268 v 7.47974 c 0,0.50507 0.22479,0.98364 0.61298,1.3067 l 5.99323,4.97888 1.98309,7.90955 c 0.19403,0.77136 0.8858,1.28601 1.64636,1.28601 0.13684,0 0.27618,-0.0166 0.41467,-0.05145 0.90986,-0.22807 1.46308,-1.15074 1.23499,-2.06059 z"
         id="path58" />
      <path
         inkscape:connector-curvature="0"
         d="m 88.15936,46.44324 v 2.59741 c 0,0.29944 0.13214,0.58362 0.36108,0.77667 l 2.1087,1.77747 c 0.31848,0.26874 0.70746,0.39978 1.09399,0.39978 0.58942,0 1.17389,-0.30499 1.49805,-0.89325 0.39532,-0.71741 0.1662,-1.62488 -0.46008,-2.15277 L 89.20965,45.9549 c -0.41528,-0.35004 -1.05029,-0.05481 -1.05029,0.48834 z"
         id="path60" />
      <path
         inkscape:connector-curvature="0"
         d="m 83.23596,55.19916 c -0.49817,-0.41412 -1.2453,-0.30536 -1.60474,0.23358 l -6.27179,9.40332 c -0.45612,0.68384 -0.42407,1.62366 0.159,2.20312 0.34467,0.34241 0.78015,0.50446 1.20831,0.50446 0.54907,0 1.08734,-0.26538 1.41498,-0.75598 l 6.24066,-9.36688 c 0.30933,-0.46429 0.21851,-1.0871 -0.21051,-1.44366 z"
         id="path62" />
    </g>
    <text
       style="font-weight:bold;font-size:1.32291663px;font-family:'Helvetica Neue', Helvetica, Arial-Unicode, Arial, Sans-serif;fill:#000000;stroke-width:0.26458332"
       x="14.373984"
       y="91.173973"
       font-size="5px"
       font-weight="bold"
       id="text66">Created by Evgeny Filatov</text>
    <text
       style="font-weight:bold;font-size:1.32291663px;font-family:'Helvetica Neue', Helvetica, Arial-Unicode, Arial, Sans-serif;fill:#000000;stroke-width:0.26458332"
       x="13.572177"
       y="93.165054"
       font-size="5px"
       font-weight="bold"
       id="text68">from the Noun Project</text>
    <g
       transform="matrix(0.2244929,0,0,0.2244929,19.919819,261.29799)"
       id="g18">
      <g
         id="g4057">
        <path
           id="path2"
           d="m 90,25.9 c -0.1,0 -0.1,0 0,0 -0.1,-0.1 -0.1,-0.2 -0.1,-0.3 0,0 0,-0.1 -0.1,-0.1 0,-0.1 -0.1,-0.1 -0.1,-0.1 0,0 0,0 -0.1,-0.1 0,0 0,0 0,0 -0.1,0 -0.1,-0.1 -0.2,-0.1 0,0 0,0 0,0 L 50.3,11 c -0.2,-0.1 -0.5,-0.1 -0.7,0 l -39,14.3 c 0,0 0,0 0,0 -0.1,0 -0.2,0.1 -0.2,0.1 0,0 0,0 0,0 0,0 0,0 -0.1,0.1 0,0 -0.1,0.1 -0.1,0.1 0,0 0,0.1 -0.1,0.1 0,0.1 -0.1,0.1 -0.1,0.2 0,0 0,0.1 0,0.1 0,0.1 0,0.2 0,0.3 v 47.6 c 0,0.4 0.3,0.8 0.7,0.9 l 39,14.3 c 0,0 0,0 0,0 0.1,0 0.2,0.1 0.3,0.1 0.1,0 0.2,0 0.3,-0.1 0,0 0,0 0,0 l 39,-14.3 C 89.7,74.7 90,74.3 90,73.9 V 26.2 c 0,-0.1 0,-0.2 0,-0.3 z M 50,13 86.1,26.2 50,39.4 13.9,26.2 Z M 12,27.6 49,41.2 V 86.7 L 12,73.1 Z M 51,86.7 V 41.2 L 81.4,30 88,27.6 v 45.5 z"
           inkscape:connector-curvature="0" />
        <path
           id="path4"
           d="m 59.7,53 c 2,0 3.7,-1.7 3.7,-3.7 0,-2 -1.7,-3.7 -3.7,-3.7 -2,0 -3.7,1.6 -3.7,3.6 0,2 1.6,3.8 3.7,3.8 z m 0,-5.5 c 0.9,0 1.7,0.8 1.7,1.7 0,0.9 -0.8,1.8 -1.7,1.8 -0.9,0 -1.7,-0.8 -1.7,-1.8 0,-1 0.7,-1.7 1.7,-1.7 z"
           inkscape:connector-curvature="0" />
        <path
           style="fill:#000000"
           id="path6"
           d="m 50,29.9 c 2,0 3.7,-1.7 3.7,-3.7 0,-2 -1.7,-3.7 -3.7,-3.7 -2,0 -3.7,1.7 -3.7,3.7 0,2 1.7,3.7 3.7,3.7 z m 0,-5.4 c 0.9,0 1.7,0.8 1.7,1.7 0,0.9 -0.8,1.7 -1.7,1.7 -0.9,0 -1.7,-0.8 -1.7,-1.7 0,-0.9 0.8,-1.7 1.7,-1.7 z"
           inkscape:connector-curvature="0" />
        <path
           id="path8"
           d="m 60.1,73.1 c -2,0 -3.7,1.7 -3.7,3.7 0,2 1.7,3.7 3.7,3.7 2,0 3.7,-1.7 3.7,-3.7 0,-2 -1.7,-3.7 -3.7,-3.7 z m 0,5.4 c -0.9,0 -1.7,-0.8 -1.7,-1.7 0,-0.9 0.8,-1.7 1.7,-1.7 0.9,0 1.7,0.8 1.7,1.7 0,0.9 -0.8,1.7 -1.7,1.7 z"
           inkscape:connector-curvature="0" />
        <path
           id="path10"
           d="m 81.9,35.8 c -2,0 -3.7,1.7 -3.7,3.7 0,2 1.7,3.7 3.7,3.7 2,0 3.7,-1.7 3.7,-3.7 0,-2 -1.6,-3.7 -3.7,-3.7 z m 0,5.5 c -0.9,0 -1.7,-0.8 -1.7,-1.7 0,-0.9 0.8,-1.7 1.7,-1.7 0.9,0 1.7,0.8 1.7,1.7 0,0.9 -0.7,1.7 -1.7,1.7 z"
           inkscape:connector-curvature="0" />
        <path
           id="path12"
           d="m 81.9,62 c -2,0 -3.7,1.7 -3.7,3.7 0,2 1.7,3.7 3.7,3.7 2,0 3.7,-1.7 3.7,-3.7 0,-2 -1.6,-3.7 -3.7,-3.7 z m 0,5.4 c -0.9,0 -1.7,-0.8 -1.7,-1.7 0,-0.9 0.8,-1.7 1.7,-1.7 0.9,0 1.7,0.8 1.7,1.7 0,0.9 -0.7,1.7 -1.7,1.7 z"
           inkscape:connector-curvature="0" />
        <path
           id="path14"
           d="m 39,44.7 c -2.3,0 -4.2,1.9 -4.2,4.2 0,2.3 1.9,4.2 4.2,4.2 2.3,0 4.2,-1.9 4.2,-4.2 0,-2.3 -1.8,-4.2 -4.2,-4.2 z m 0,6.4 c -1.2,0 -2.2,-1 -2.2,-2.2 0,-1.2 1,-2.2 2.2,-2.2 1.2,0 2.2,1 2.2,2.2 0,1.2 -0.9,2.2 -2.2,2.2 z"
           inkscape:connector-curvature="0" />
        <path
           id="path16"
           d="m 21.7,62.9 c -2,0 -3.7,1.7 -3.7,3.7 0,2 1.7,3.7 3.7,3.7 2,0 3.7,-1.7 3.7,-3.7 0,-2.1 -1.6,-3.7 -3.7,-3.7 z m 0,5.4 c -0.9,0 -1.7,-0.8 -1.7,-1.7 0,-0.9 0.8,-1.7 1.7,-1.7 0.9,0 1.7,0.8 1.7,1.7 0,0.9 -0.7,1.7 -1.7,1.7 z"
           inkscape:connector-curvature="0" />
        <circle
           r="1.875"
           cy="26.418777"
           cx="50.100704"
           id="path4028"
           style="opacity:1;fill:#000000;fill-opacity:1;stroke:#000000;stroke-width:5.6692915;stroke-linecap:round;stroke-linejoin:miter;stroke-miterlimit:4;stroke-dasharray:none;stroke-dashoffset:0;stroke-opacity:1" />
        <circle
           style="opacity:1;fill:#000000;fill-opacity:1;stroke:#000000;stroke-width:5.6692915;stroke-linecap:round;stroke-linejoin:miter;stroke-miterlimit:4;stroke-dasharray:none;stroke-dashoffset:0;stroke-opacity:1"
           id="circle4030"
           cx="59.564991"
           cy="48.740208"
           r="1.875" />
        <circle
           r="1.875"
           cy="75.883064"
           cx="59.564991"
           id="circle4032"
           style="opacity:1;fill:#000000;fill-opacity:1;stroke:#000000;stroke-width:5.6692915;stroke-linecap:round;stroke-linejoin:miter;stroke-miterlimit:4;stroke-dasharray:none;stroke-dashoffset:0;stroke-opacity:1" />
        <circle
           style="opacity:1;fill:#000000;fill-opacity:1;stroke:#000000;stroke-width:5.6692915;stroke-linecap:round;stroke-linejoin:miter;stroke-miterlimit:4;stroke-dasharray:none;stroke-dashoffset:0;stroke-opacity:1"
           id="circle4034"
           cx="80.814995"
           cy="65.525925"
           r="1.875" />
        <circle
           r="1.875"
           cy="39.990211"
           cx="80.814995"
           id="circle4036"
           style="opacity:1;fill:#000000;fill-opacity:1;stroke:#000000;stroke-width:5.6692915;stroke-linecap:round;stroke-linejoin:miter;stroke-miterlimit:4;stroke-dasharray:none;stroke-dashoffset:0;stroke-opacity:1" />
        <circle
           style="opacity:1;fill:#000000;fill-opacity:1;stroke:#000000;stroke-width:5.6692915;stroke-linecap:round;stroke-linejoin:miter;stroke-miterlimit:4;stroke-dasharray:none;stroke-dashoffset:0;stroke-opacity:1"
           id="circle4038"
           cx="39.029282"
           cy="48.561642"
           r="1.875" />
        <circle
           r="1.875"
           cy="65.704498"
           cx="21.35071"
           id="circle4040"
           style="opacity:1;fill:#000000;fill-opacity:1;stroke:#000000;stroke-width:5.6692915;stroke-linecap:round;stroke-linejoin:miter;stroke-miterlimit:4;stroke-dasharray:none;stroke-dashoffset:0;stroke-opacity:1" />
      </g>
    </g>
    <text
       style="font-weight:bold;font-size:1.32291663px;font-family:'Helvetica Neue', Helvetica, Arial-Unicode, Arial, Sans-serif;fill:#000000;stroke-width:0.26458332"
       x="13.030919"
       y="96.784027"
       font-size="5px"
       font-weight="bold"
       id="text20">Created by Anita Erica</text>
    <text
       style="font-weight:bold;font-size:1.32291663px;font-family:'Helvetica Neue', Helvetica, Arial-Unicode, Arial, Sans-serif;fill:#000000;stroke-width:0.26458332"
       x="13.030919"
       y="98.106949"
       font-size="5px"
       font-weight="bold"
       id="text22">from the Noun Project</text>
    <flowRoot
       xml:space="preserve"
       id="flowRoot3903"
       style="font-style:normal;font-weight:normal;font-size:40px;line-height:1.25;font-family:sans-serif;letter-spacing:0px;word-spacing:0px;fill:#000000;fill-opacity:1;stroke:none"
       transform="matrix(0.26458333,0,0,0.26458333,-6.0135643,216.75559)"><flowRegion
         id="flowRegion3905"><rect
           id="rect3907"
           width="79.296974"
           height="78.791901"
           x="357.08893"
           y="57.313824" /></flowRegion><flowPara
         id="flowPara3909"
         style="font-size:21.33333397px">1-2</flowPara></flowRoot>    <flowRoot
       transform="matrix(0.26458333,0,0,0.26458333,-3.158269,226.33451)"
       style="font-style:normal;font-weight:normal;font-size:40px;line-height:1.25;font-family:sans-serif;letter-spacing:0px;word-spacing:0px;fill:#000000;fill-opacity:1;stroke:none"
       id="flowRoot3917"
       xml:space="preserve"><flowRegion
         id="flowRegion3913"><rect
           y="57.313824"
           x="357.08893"
           height="78.791901"
           width="79.296974"
           id="rect3911" /></flowRegion><flowPara
         style="font-size:21.33333397px"
         id="flowPara3915">3</flowPara></flowRoot>    <flowRoot
       xml:space="preserve"
       id="flowRoot3925"
       style="font-style:normal;font-weight:normal;font-size:40px;line-height:1.25;font-family:sans-serif;letter-spacing:0px;word-spacing:0px;fill:#000000;fill-opacity:1;stroke:none"
       transform="matrix(0.26458333,0,0,0.26458333,-3.1486228,235.91346)"><flowRegion
         id="flowRegion3921"><rect
           id="rect3919"
           width="79.296974"
           height="78.791901"
           x="357.08893"
           y="57.313824" /></flowRegion><flowPara
         id="flowPara3923"
         style="font-size:21.33333397px">4</flowPara></flowRoot>    <flowRoot
       transform="matrix(0.26458333,0,0,0.26458333,-3.1885859,255.07135)"
       style="font-style:normal;font-weight:normal;font-size:40px;line-height:1.25;font-family:sans-serif;letter-spacing:0px;word-spacing:0px;fill:#000000;fill-opacity:1;stroke:none"
       id="flowRoot3933"
       xml:space="preserve"><flowRegion
         id="flowRegion3929"><rect
           y="57.313824"
           x="357.08893"
           height="78.791901"
           width="79.296974"
           id="rect3927" /></flowRegion><flowPara
         style="font-size:21.33333397px"
         id="flowPara3931">6</flowPara></flowRoot>    <flowRoot
       transform="matrix(0.26458333,0,0,0.26458333,-3.1403545,245.49243)"
       style="font-style:normal;font-weight:normal;font-size:40px;line-height:1.25;font-family:sans-serif;letter-spacing:0px;word-spacing:0px;fill:#000000;fill-opacity:1;stroke:none"
       id="flowRoot3949"
       xml:space="preserve"><flowRegion
         id="flowRegion3945"><rect
           y="57.313824"
           x="357.08893"
           height="78.791901"
           width="79.296974"
           id="rect3943" /></flowRegion><flowPara
         style="font-size:21.33333397px"
         id="flowPara3947">5</flowPara></flowRoot>    <flowRoot
       transform="matrix(0.26458333,0,0,0.26458333,11.75986,216.75559)"
       style="font-style:normal;font-weight:normal;font-size:40px;line-height:1.25;font-family:sans-serif;letter-spacing:0px;word-spacing:0px;fill:#000000;fill-opacity:1;stroke:none"
       id="flowRoot3976"
       xml:space="preserve"><flowRegion
         id="flowRegion3972"><rect
           y="57.313824"
           x="357.08893"
           height="78.791901"
           width="79.296974"
           id="rect3970" /></flowRegion><flowPara
         style="font-size:21.33333397px"
         id="flowPara3974">yeah</flowPara></flowRoot>    <flowRoot
       xml:space="preserve"
       id="flowRoot3984"
       style="font-style:normal;font-weight:normal;font-size:40px;line-height:1.25;font-family:sans-serif;letter-spacing:0px;word-spacing:0px;fill:#000000;fill-opacity:1;stroke:none"
       transform="matrix(0.26458333,0,0,0.26458333,11.75986,226.33451)"><flowRegion
         id="flowRegion3980"><rect
           id="rect3978"
           width="79.296974"
           height="78.791901"
           x="357.08893"
           y="57.313824" /></flowRegion><flowPara
         id="flowPara3982"
         style="font-size:21.33333397px">you</flowPara></flowRoot>    <flowRoot
       transform="matrix(0.26458333,0,0,0.26458333,11.75986,235.91346)"
       style="font-style:normal;font-weight:normal;font-size:40px;line-height:1.25;font-family:sans-serif;letter-spacing:0px;word-spacing:0px;fill:#000000;fill-opacity:1;stroke:none"
       id="flowRoot3992"
       xml:space="preserve"><flowRegion
         id="flowRegion3988"><rect
           y="57.313824"
           x="357.08893"
           height="78.791901"
           width="79.296974"
           id="rect3986" /></flowRegion><flowPara
         style="font-size:21.33333397px"
         id="flowPara3990">love</flowPara></flowRoot>    <flowRoot
       xml:space="preserve"
       id="flowRoot4000"
       style="font-style:normal;font-weight:normal;font-size:40px;line-height:1.25;font-family:sans-serif;letter-spacing:0px;word-spacing:0px;fill:#000000;fill-opacity:1;stroke:none"
       transform="matrix(0.26458333,0,0,0.26458333,11.75986,255.07135)"><flowRegion
         id="flowRegion3996"><rect
           id="rect3994"
           width="435.37573"
           height="78.286827"
           x="357.08893"
           y="57.313824" /></flowRegion><flowPara
         id="flowPara3998"
         style="font-size:21.33333397px">submarine</flowPara></flowRoot>    <flowRoot
       xml:space="preserve"
       id="flowRoot4016"
       style="font-style:normal;font-weight:normal;font-size:40px;line-height:1.25;font-family:sans-serif;letter-spacing:0px;word-spacing:0px;fill:#000000;fill-opacity:1;stroke:none"
       transform="matrix(0.26458333,0,0,0.26458333,11.75986,245.49243)"><flowRegion
         id="flowRegion4012"><rect
           id="rect4010"
           width="79.296974"
           height="78.791901"
           x="357.08893"
           y="57.313824" /></flowRegion><flowPara
         id="flowPara4014"
         style="font-size:21.33333397px">girl</flowPara></flowRoot>    <g
       id="g4024"
       transform="matrix(0.71582507,0,0,0.71582507,20.855619,235.962)">
      <path
         inkscape:transform-center-x="-2.3721882"
         d="m 66.991084,41.200939 -0.0264,-8.263233 0.0264,-8.263233 7.16937,4.108752 7.142969,4.154481 -7.142969,4.154481 z"
         inkscape:randomized="0"
         inkscape:rounded="0"
         inkscape:flatsided="false"
         sodipodi:arg2="3.1415927"
         sodipodi:arg1="2.0943951"
         sodipodi:r2="4.7971811"
         sodipodi:r1="9.5415592"
         sodipodi:cy="32.937706"
         sodipodi:cx="71.761864"
         sodipodi:sides="3"
         id="path4018"
         style="opacity:1;fill:#000000;fill-opacity:1;stroke:#000000;stroke-width:1.5;stroke-linecap:round;stroke-linejoin:miter;stroke-miterlimit:4;stroke-dasharray:none;stroke-dashoffset:0;stroke-opacity:1"
         sodipodi:type="star" />
      <rect
         y="28.193672"
         x="54.389347"
         height="9.4880686"
         width="15.367997"
         id="rect4020"
         style="opacity:1;fill:#000000;fill-opacity:1;stroke:#000000;stroke-width:1.5;stroke-linecap:round;stroke-linejoin:miter;stroke-miterlimit:4;stroke-dasharray:none;stroke-dashoffset:0;stroke-opacity:1" />
    </g>
    <flowRoot
       xml:space="preserve"
       id="flowRoot4065"
       style="font-style:normal;font-weight:normal;font-size:40px;line-height:1.25;font-family:sans-serif;letter-spacing:0px;word-spacing:0px;fill:#000000;fill-opacity:1;stroke:none"
       transform="matrix(0.26458333,0,0,0.26458333,-66.882626,234.61987)"><flowRegion
         id="flowRegion4061"><rect
           id="rect4059"
           width="79.296974"
           height="78.791901"
           x="357.08893"
           y="57.313824" /></flowRegion><flowPara
         id="flowPara4063"
         style="font-weight:bold;font-size:32px">+</flowPara></flowRoot>  </g>
</svg>
