<?xml version="1.0" encoding="UTF-8" standalone="no"?>
<!-- Created with Inkscape (http://www.inkscape.org/) -->

<svg
   xmlns:dc="http://purl.org/dc/elements/1.1/"
   xmlns:cc="http://creativecommons.org/ns#"
   xmlns:rdf="http://www.w3.org/1999/02/22-rdf-syntax-ns#"
   xmlns:svg="http://www.w3.org/2000/svg"
   xmlns="http://www.w3.org/2000/svg"
   xmlns:sodipodi="http://sodipodi.sourceforge.net/DTD/sodipodi-0.dtd"
   xmlns:inkscape="http://www.inkscape.org/namespaces/inkscape"
   width="400mm"
   height="180mm"
   viewBox="0 0 400 180"
   version="1.1"
   id="svg8"
   inkscape:version="0.92.2 (5c3e80d, 2017-08-06)"
   sodipodi:docname="roadmap_photographs.svg">
  <defs
     id="defs2">
    <clipPath
       clipPathUnits="userSpaceOnUse"
       id="clipPath2567">
      <rect
         style="fill:#b3b3b3;fill-opacity:1;stroke:none;stroke-width:0.41039768"
         id="rect2569"
         width="64.946495"
         height="33.675961"
         x="124.3401"
         y="109.78903" />
    </clipPath>
    <clipPath
       clipPathUnits="userSpaceOnUse"
       id="clipPath2579">
      <rect
         y="108.71994"
         x="127.28006"
         height="33.675961"
         width="59.333836"
         id="rect2581"
         style="fill:#b3b3b3;fill-opacity:1;stroke:none;stroke-width:0.3922638" />
    </clipPath>
  </defs>
  <sodipodi:namedview
     id="base"
     pagecolor="#ffffff"
     bordercolor="#666666"
     borderopacity="1.0"
     inkscape:pageopacity="0.0"
     inkscape:pageshadow="2"
     inkscape:zoom="0.7"
     inkscape:cx="444.55492"
     inkscape:cy="351.09007"
     inkscape:document-units="mm"
     inkscape:current-layer="layer1"
     showgrid="false"
     inkscape:object-nodes="false"
     inkscape:window-width="1613"
     inkscape:window-height="995"
     inkscape:window-x="67"
     inkscape:window-y="27"
     inkscape:window-maximized="1" />
  <metadata
     id="metadata5">
    <rdf:RDF>
      <cc:Work
         rdf:about="">
        <dc:format>image/svg+xml</dc:format>
        <dc:type
           rdf:resource="http://purl.org/dc/dcmitype/StillImage" />
        <dc:title />
      </cc:Work>
    </rdf:RDF>
  </metadata>
  <g
     inkscape:label="Layer 1"
     inkscape:groupmode="layer"
     id="layer1"
     transform="translate(0,-117)">
    <g
       id="g257"
       transform="rotate(42.112747,26.751894,197.03926)">
      <rect
         style="fill:#b3b3b3;fill-opacity:1;stroke:none;stroke-width:0.26458332"
         id="rect253"
         width="79.913589"
         height="7.7508225"
         x="130.29385"
         y="122.07188" />
      <path
         id="path255"
         transform="matrix(0.26458333,0,0,0.26458333,0,87)"
         d="m 492.44922,132.55664 v 29.29297 h 8.36133 l 7.46093,-14.64649 -7.46289,-14.64648 z m 38.5957,0 7.46289,14.64648 -7.46093,14.64649 h 32.4414 l 7.46094,-14.64649 -7.46289,-14.64648 z m 62.67774,0 7.46289,14.64648 -7.46094,14.64649 h 32.44336 l 7.46094,-14.64649 -7.46289,-14.64648 z m 62.67968,0 7.46289,14.64648 -7.46093,14.64649 h 32.4414 l 7.46094,-14.64649 -7.46289,-14.64648 z m 62.67774,0 7.46289,14.64648 -7.46094,14.64649 h 32.44336 l 7.46094,-14.64649 -7.46289,-14.64648 z m 62.67969,0 7.46289,14.64648 -7.46094,14.64649 h 12.72266 v -29.29297 z"
         style="fill:#cccccc;fill-opacity:1;stroke-width:0.99999994"
         inkscape:connector-curvature="0" />
    </g>
    <text
       xml:space="preserve"
       style="font-style:normal;font-weight:normal;font-size:10.58333302px;line-height:0.69999999;font-family:sans-serif;letter-spacing:0px;word-spacing:0px;fill:#000000;fill-opacity:1;stroke:none;stroke-width:0.26458332"
       x="194.0206"
       y="282.00128"
       id="text214"><tspan
         sodipodi:role="line"
         x="194.0206"
         y="282.00128"
         id="tspan212"
         style="stroke-width:0.26458332"><tspan
           x="194.0206"
           y="282.00128"
           style="font-size:4.93888855px;line-height:0.69999999;stroke-width:0.26458332"
           id="tspan210">run YOLO</tspan></tspan></text>
    <circle
       style="fill:#ffa667;fill-opacity:1;stroke:#ff6900;stroke-width:2.25788736;stroke-miterlimit:4;stroke-dasharray:none;stroke-opacity:1"
       id="circle269"
       cx="205.59491"
       cy="263.56476"
       r="9.2810249" />
    <circle
       style="fill:none;fill-opacity:1;stroke:#000000;stroke-width:0.53583056;stroke-miterlimit:4;stroke-dasharray:none;stroke-opacity:1"
       id="circle271"
       cx="205.59491"
       cy="263.56476"
       r="10.330469" />
    <g
       id="g2607"
       transform="translate(-10.205357,45.217152)">
      <g
         clip-path="url(#clipPath2567)"
         transform="translate(-80.939593,41.892334)"
         id="g2546">
        <rect
           y="122.07188"
           x="130.29385"
           height="7.7508225"
           width="79.913589"
           id="rect2530"
           style="fill:#b3b3b3;fill-opacity:1;stroke:none;stroke-width:0.26458332" />
        <path
           inkscape:connector-curvature="0"
           style="fill:#cccccc;fill-opacity:1;stroke-width:0.99999994"
           d="m 492.44922,132.55664 v 29.29297 h 8.36133 l 7.46093,-14.64649 -7.46289,-14.64648 z m 38.5957,0 7.46289,14.64648 -7.46093,14.64649 h 32.4414 l 7.46094,-14.64649 -7.46289,-14.64648 z m 62.67774,0 7.46289,14.64648 -7.46094,14.64649 h 32.44336 l 7.46094,-14.64649 -7.46289,-14.64648 z m 62.67968,0 7.46289,14.64648 -7.46093,14.64649 h 32.4414 l 7.46094,-14.64649 -7.46289,-14.64648 z m 62.67774,0 7.46289,14.64648 -7.46094,14.64649 h 32.44336 l 7.46094,-14.64649 -7.46289,-14.64648 z m 62.67969,0 7.46289,14.64648 -7.46094,14.64649 h 12.72266 v -29.29297 z"
           transform="matrix(0.26458333,0,0,0.26458333,0,87)"
           id="rect2504" />
      </g>
      <g
         id="g2575"
         transform="translate(-22.674836,41.892334)"
         clip-path="url(#clipPath2579)">
        <rect
           style="fill:#b3b3b3;fill-opacity:1;stroke:none;stroke-width:0.26458332"
           id="rect2571"
           width="79.913589"
           height="7.7508225"
           x="130.29385"
           y="122.07188" />
        <path
           id="path2573"
           transform="matrix(0.26458333,0,0,0.26458333,0,87)"
           d="m 492.44922,132.55664 v 29.29297 h 8.36133 l 7.46093,-14.64649 -7.46289,-14.64648 z m 38.5957,0 7.46289,14.64648 -7.46093,14.64649 h 32.4414 l 7.46094,-14.64649 -7.46289,-14.64648 z m 62.67774,0 7.46289,14.64648 -7.46094,14.64649 h 32.44336 l 7.46094,-14.64649 -7.46289,-14.64648 z m 62.67968,0 7.46289,14.64648 -7.46093,14.64649 h 32.4414 l 7.46094,-14.64649 -7.46289,-14.64648 z m 62.67774,0 7.46289,14.64648 -7.46094,14.64649 h 32.44336 l 7.46094,-14.64649 -7.46289,-14.64648 z m 62.67969,0 7.46289,14.64648 -7.46094,14.64649 h 12.72266 v -29.29297 z"
           style="fill:#cccccc;fill-opacity:1;stroke-width:0.99999994"
           inkscape:connector-curvature="0" />
      </g>
      <g
         clip-path="url(#clipPath2579)"
         transform="translate(30.24453,41.892334)"
         id="g2587">
        <rect
           y="122.07188"
           x="130.29385"
           height="7.7508225"
           width="79.913589"
           id="rect2583"
           style="fill:#b3b3b3;fill-opacity:1;stroke:none;stroke-width:0.26458332" />
        <path
           inkscape:connector-curvature="0"
           style="fill:#cccccc;fill-opacity:1;stroke-width:0.99999994"
           d="m 492.44922,132.55664 v 29.29297 h 8.36133 l 7.46093,-14.64649 -7.46289,-14.64648 z m 38.5957,0 7.46289,14.64648 -7.46093,14.64649 h 32.4414 l 7.46094,-14.64649 -7.46289,-14.64648 z m 62.67774,0 7.46289,14.64648 -7.46094,14.64649 h 32.44336 l 7.46094,-14.64649 -7.46289,-14.64648 z m 62.67968,0 7.46289,14.64648 -7.46093,14.64649 h 32.4414 l 7.46094,-14.64649 -7.46289,-14.64648 z m 62.67774,0 7.46289,14.64648 -7.46094,14.64649 h 32.44336 l 7.46094,-14.64649 -7.46289,-14.64648 z m 62.67969,0 7.46289,14.64648 -7.46094,14.64649 h 12.72266 v -29.29297 z"
           transform="matrix(0.26458333,0,0,0.26458333,0,87)"
           id="path2585" />
      </g>
      <g
         id="g2593"
         transform="translate(80.655632,34.33281)"
         clip-path="url(#clipPath2579)">
        <rect
           style="fill:#b3b3b3;fill-opacity:1;stroke:none;stroke-width:0.26458332"
           id="rect2589"
           width="79.913589"
           height="7.7508225"
           x="135.20755"
           y="129.63139" />
        <path
           id="path2591"
           d="m 135.20754,129.6318 v 7.75043 h 2.21227 l 1.97404,-3.87521 -1.97456,-3.87522 z m 10.21178,0 1.97456,3.87522 -1.97404,3.87521 h 8.58346 l 1.97404,-3.87521 -1.97456,-3.87522 z m 16.58349,0 1.97456,3.87522 -1.97405,3.87521 h 8.58398 l 1.97404,-3.87521 -1.97456,-3.87522 z m 16.584,0 1.97455,3.87522 -1.97403,3.87521 h 8.58345 l 1.97404,-3.87521 -1.97456,-3.87522 z m 16.58348,0 1.97456,3.87522 -1.97404,3.87521 h 8.58397 l 1.97404,-3.87521 -1.97456,-3.87522 z m 16.584,0 1.97456,3.87522 -1.97404,3.87521 h 3.3662 v -7.75043 z"
           style="fill:#cccccc;fill-opacity:1;stroke-width:0.26458332"
           inkscape:connector-curvature="0" />
      </g>
    </g>
    <g
       id="g177"
       transform="matrix(0.74182667,-0.67059168,-0.67059168,-0.74182667,139.34691,393.33988)">
      <rect
         style="fill:#b3b3b3;fill-opacity:1;stroke:none;stroke-width:0.26458332"
         id="rect173"
         width="79.913589"
         height="7.7508225"
         x="130.29385"
         y="122.07188" />
      <path
         id="path175"
         transform="matrix(0.26458333,0,0,0.26458333,0,87)"
         d="m 492.44922,132.55664 v 29.29297 h 8.36133 l 7.46093,-14.64649 -7.46289,-14.64648 z m 38.5957,0 7.46289,14.64648 -7.46093,14.64649 h 32.4414 l 7.46094,-14.64649 -7.46289,-14.64648 z m 62.67774,0 7.46289,14.64648 -7.46094,14.64649 h 32.44336 l 7.46094,-14.64649 -7.46289,-14.64648 z m 62.67968,0 7.46289,14.64648 -7.46093,14.64649 h 32.4414 l 7.46094,-14.64649 -7.46289,-14.64648 z m 62.67774,0 7.46289,14.64648 -7.46094,14.64649 h 32.44336 l 7.46094,-14.64649 -7.46289,-14.64648 z m 62.67969,0 7.46289,14.64648 -7.46094,14.64649 h 12.72266 v -29.29297 z"
         style="fill:#cccccc;fill-opacity:1;stroke-width:0.99999994"
         inkscape:connector-curvature="0" />
    </g>
    <g
       transform="translate(44.584893,45.217152)"
       id="g135">
      <g
         id="g115"
         transform="translate(-80.939593,41.892334)"
         clip-path="url(#clipPath2567)">
        <rect
           style="fill:#b3b3b3;fill-opacity:1;stroke:none;stroke-width:0.26458332"
           id="rect111"
           width="79.913589"
           height="7.7508225"
           x="130.29385"
           y="122.07188" />
        <path
           id="path113"
           transform="matrix(0.26458333,0,0,0.26458333,0,87)"
           d="m 492.44922,132.55664 v 29.29297 h 8.36133 l 7.46093,-14.64649 -7.46289,-14.64648 z m 38.5957,0 7.46289,14.64648 -7.46093,14.64649 h 32.4414 l 7.46094,-14.64649 -7.46289,-14.64648 z m 62.67774,0 7.46289,14.64648 -7.46094,14.64649 h 32.44336 l 7.46094,-14.64649 -7.46289,-14.64648 z m 62.67968,0 7.46289,14.64648 -7.46093,14.64649 h 32.4414 l 7.46094,-14.64649 -7.46289,-14.64648 z m 62.67774,0 7.46289,14.64648 -7.46094,14.64649 h 32.44336 l 7.46094,-14.64649 -7.46289,-14.64648 z m 62.67969,0 7.46289,14.64648 -7.46094,14.64649 h 12.72266 v -29.29297 z"
           style="fill:#cccccc;fill-opacity:1;stroke-width:0.99999994"
           inkscape:connector-curvature="0" />
      </g>
      <g
         clip-path="url(#clipPath2579)"
         transform="translate(-22.674836,41.892334)"
         id="g121">
        <rect
           y="122.07188"
           x="130.29385"
           height="7.7508225"
           width="79.913589"
           id="rect117"
           style="fill:#b3b3b3;fill-opacity:1;stroke:none;stroke-width:0.26458332" />
        <path
           inkscape:connector-curvature="0"
           style="fill:#cccccc;fill-opacity:1;stroke-width:0.99999994"
           d="m 492.44922,132.55664 v 29.29297 h 8.36133 l 7.46093,-14.64649 -7.46289,-14.64648 z m 38.5957,0 7.46289,14.64648 -7.46093,14.64649 h 32.4414 l 7.46094,-14.64649 -7.46289,-14.64648 z m 62.67774,0 7.46289,14.64648 -7.46094,14.64649 h 32.44336 l 7.46094,-14.64649 -7.46289,-14.64648 z m 62.67968,0 7.46289,14.64648 -7.46093,14.64649 h 32.4414 l 7.46094,-14.64649 -7.46289,-14.64648 z m 62.67774,0 7.46289,14.64648 -7.46094,14.64649 h 32.44336 l 7.46094,-14.64649 -7.46289,-14.64648 z m 62.67969,0 7.46289,14.64648 -7.46094,14.64649 h 12.72266 v -29.29297 z"
           transform="matrix(0.26458333,0,0,0.26458333,0,87)"
           id="path119" />
      </g>
      <g
         id="g127"
         transform="translate(30.24453,41.892334)"
         clip-path="url(#clipPath2579)">
        <rect
           style="fill:#b3b3b3;fill-opacity:1;stroke:none;stroke-width:0.26458332"
           id="rect123"
           width="79.913589"
           height="7.7508225"
           x="130.29385"
           y="122.07188" />
        <path
           id="path125"
           transform="matrix(0.26458333,0,0,0.26458333,0,87)"
           d="m 492.44922,132.55664 v 29.29297 h 8.36133 l 7.46093,-14.64649 -7.46289,-14.64648 z m 38.5957,0 7.46289,14.64648 -7.46093,14.64649 h 32.4414 l 7.46094,-14.64649 -7.46289,-14.64648 z m 62.67774,0 7.46289,14.64648 -7.46094,14.64649 h 32.44336 l 7.46094,-14.64649 -7.46289,-14.64648 z m 62.67968,0 7.46289,14.64648 -7.46093,14.64649 h 32.4414 l 7.46094,-14.64649 -7.46289,-14.64648 z m 62.67774,0 7.46289,14.64648 -7.46094,14.64649 h 32.44336 l 7.46094,-14.64649 -7.46289,-14.64648 z m 62.67969,0 7.46289,14.64648 -7.46094,14.64649 h 12.72266 v -29.29297 z"
           style="fill:#cccccc;fill-opacity:1;stroke-width:0.99999994"
           inkscape:connector-curvature="0" />
      </g>
      <g
         clip-path="url(#clipPath2579)"
         transform="translate(80.655632,34.33281)"
         id="g133">
        <rect
           y="129.63139"
           x="135.20755"
           height="7.7508225"
           width="79.913589"
           id="rect129"
           style="fill:#b3b3b3;fill-opacity:1;stroke:none;stroke-width:0.26458332" />
        <path
           inkscape:connector-curvature="0"
           style="fill:#cccccc;fill-opacity:1;stroke-width:0.26458332"
           d="m 135.20754,129.6318 v 7.75043 h 2.21227 l 1.97404,-3.87521 -1.97456,-3.87522 z m 10.21178,0 1.97456,3.87522 -1.97404,3.87521 h 8.58346 l 1.97404,-3.87521 -1.97456,-3.87522 z m 16.58349,0 1.97456,3.87522 -1.97405,3.87521 h 8.58398 l 1.97404,-3.87521 -1.97456,-3.87522 z m 16.584,0 1.97455,3.87522 -1.97403,3.87521 h 8.58345 l 1.97404,-3.87521 -1.97456,-3.87522 z m 16.58348,0 1.97456,3.87522 -1.97404,3.87521 h 8.58397 l 1.97404,-3.87521 -1.97456,-3.87522 z m 16.584,0 1.97456,3.87522 -1.97404,3.87521 h 3.3662 v -7.75043 z"
           id="path131" />
      </g>
    </g>
    <circle
       style="fill:#ffa667;fill-opacity:1;stroke:#ff6900;stroke-width:2.25788736;stroke-miterlimit:4;stroke-dasharray:none;stroke-opacity:1"
       id="circle137"
       cx="315.12369"
       cy="213.05678"
       r="9.2810249" />
    <text
       xml:space="preserve"
       style="font-style:normal;font-weight:normal;font-size:10.58333302px;line-height:0.69999999;font-family:sans-serif;letter-spacing:0px;word-spacing:0px;fill:#000000;fill-opacity:1;stroke:none;stroke-width:0.26458332"
       x="299.1615"
       y="230.73361"
       id="text196"><tspan
         sodipodi:role="line"
         x="299.94766"
         y="230.73361"
         id="tspan190"
         style="stroke-width:0.26458332;text-anchor:start;text-align:start"><tspan
           x="299.1615"
           y="230.73361"
           style="font-size:4.93888855px;line-height:0.69999999;text-align:start;text-anchor:start;stroke-width:0.26458332"
           id="tspan186">present your </tspan></tspan><tspan
         sodipodi:role="line"
         x="306.61807"
         y="238.14195"
         id="tspan194"
         style="stroke-width:0.26458332;text-anchor:start;text-align:start"><tspan
           x="306.61807"
           y="238.14195"
           style="font-size:4.93888855px;line-height:0.69999999;text-align:start;text-anchor:start;stroke-width:0.26458332"
           id="tspan192">results</tspan></tspan></text>
    <text
       xml:space="preserve"
       style="font-style:normal;font-weight:normal;font-size:10.58333302px;line-height:0.69999999;font-family:sans-serif;letter-spacing:0px;word-spacing:0px;fill:#000000;fill-opacity:1;stroke:none;stroke-width:0.26458332"
       x="247.57634"
       y="231.01817"
       id="text184"><tspan
         sodipodi:role="line"
         x="247.57634"
         y="231.01817"
         id="tspan178"
         style="stroke-width:0.26458332;text-anchor:start;text-align:start"><tspan
           x="247.57634"
           y="231.01817"
           style="font-size:4.93888855px;line-height:0.69999999;text-align:start;text-anchor:start;stroke-width:0.26458332"
           id="tspan174">publish on</tspan></tspan><tspan
         sodipodi:role="line"
         x="251.80624"
         y="238.42651"
         id="tspan182"
         style="stroke-width:0.26458332;text-anchor:start;text-align:start"><tspan
           x="251.80624"
           y="238.42651"
           style="font-size:4.93888855px;line-height:0.69999999;text-align:start;text-anchor:start;stroke-width:0.26458332"
           id="tspan180">GitHub</tspan></tspan></text>
    <circle
       r="10.330469"
       cy="213.05678"
       cx="315.12369"
       id="circle159"
       style="fill:none;fill-opacity:1;stroke:#000000;stroke-width:0.53583056;stroke-miterlimit:4;stroke-dasharray:none;stroke-opacity:1" />
    <circle
       r="9.2810249"
       cy="213.05678"
       cx="260.37936"
       id="circle161"
       style="fill:#ffa667;fill-opacity:1;stroke:#ff6900;stroke-width:2.25788736;stroke-miterlimit:4;stroke-dasharray:none;stroke-opacity:1" />
    <circle
       style="fill:none;fill-opacity:1;stroke:#000000;stroke-width:0.53583056;stroke-miterlimit:4;stroke-dasharray:none;stroke-opacity:1"
       id="circle163"
       cx="260.37936"
       cy="213.05678"
       r="10.330469" />
    <g
       transform="rotate(42.112747,-29.755547,50.264157)"
       id="g2552">
      <rect
         y="122.07188"
         x="130.29385"
         height="7.7508225"
         width="79.913589"
         id="rect2548"
         style="fill:#b3b3b3;fill-opacity:1;stroke:none;stroke-width:0.26458332" />
      <path
         inkscape:connector-curvature="0"
         style="fill:#cccccc;fill-opacity:1;stroke-width:0.99999994"
         d="m 492.44922,132.55664 v 29.29297 h 8.36133 l 7.46093,-14.64649 -7.46289,-14.64648 z m 38.5957,0 7.46289,14.64648 -7.46093,14.64649 h 32.4414 l 7.46094,-14.64649 -7.46289,-14.64648 z m 62.67774,0 7.46289,14.64648 -7.46094,14.64649 h 32.44336 l 7.46094,-14.64649 -7.46289,-14.64648 z m 62.67968,0 7.46289,14.64648 -7.46093,14.64649 h 32.4414 l 7.46094,-14.64649 -7.46289,-14.64648 z m 62.67774,0 7.46289,14.64648 -7.46094,14.64649 h 32.44336 l 7.46094,-14.64649 -7.46289,-14.64648 z m 62.67969,0 7.46289,14.64648 -7.46094,14.64649 h 12.72266 v -29.29297 z"
         transform="matrix(0.26458333,0,0,0.26458333,0,87)"
         id="path2550" />
    </g>
    <text
       xml:space="preserve"
       style="font-style:normal;font-weight:normal;font-size:10.58333302px;line-height:0.69999999;font-family:sans-serif;letter-spacing:0px;word-spacing:0px;fill:#000000;fill-opacity:1;stroke:none;stroke-width:0.26458332"
       x="190.26692"
       y="182.30975"
       id="text226"><tspan
         sodipodi:role="line"
         x="190.26692"
         y="182.30975"
         id="tspan220"
         style="stroke-width:0.26458332;text-anchor:start;text-align:start"><tspan
           x="190.26692"
           y="182.30975"
           style="font-size:4.93888855px;line-height:0.69999999;text-align:start;text-anchor:start;stroke-width:0.26458332"
           id="tspan216">apply neural</tspan></tspan><tspan
         sodipodi:role="line"
         x="189.24924"
         y="189.71808"
         id="tspan224"
         style="stroke-width:0.26458332;text-anchor:start;text-align:start"><tspan
           x="189.24924"
           y="189.71808"
           style="font-size:4.93888855px;line-height:0.69999999;text-align:start;text-anchor:start;stroke-width:0.26458332"
           id="tspan222">style transfer</tspan></tspan></text>
    <text
       xml:space="preserve"
       style="font-style:normal;font-weight:normal;font-size:10.58333302px;line-height:0.69999999;font-family:sans-serif;letter-spacing:0px;word-spacing:0px;fill:#000000;fill-opacity:1;stroke:none;stroke-width:0.26458332"
       x="145.66714"
       y="282.00128"
       id="text208"><tspan
         sodipodi:role="line"
         x="92.372711"
         y="282.00128"
         id="tspan202"
         style="text-align:center;text-anchor:middle;stroke-width:0.26458332"><tspan
           x="92.372711"
           y="282.00128"
           style="font-size:4.93888855px;line-height:0.69999999;text-align:center;text-anchor:middle;stroke-width:0.26458332"
           id="tspan198"
           dx="0 0 0 0 0 0 0 0 0 0 0 0">train a CNN</tspan></tspan><tspan
         sodipodi:role="line"
         x="92.372711"
         y="289.40961"
         id="tspan206"
         style="text-align:center;text-anchor:middle;stroke-width:0.26458332"><tspan
           x="92.372711"
           y="289.40961"
           style="font-size:4.93888855px;line-height:0.69999999;text-align:center;text-anchor:middle;stroke-width:0.26458332"
           id="tspan204">on MNIST data</tspan></tspan></text>
    <text
       xml:space="preserve"
       style="font-style:normal;font-weight:normal;font-size:10.58333302px;line-height:1.25;font-family:sans-serif;letter-spacing:0px;word-spacing:0px;fill:#000000;fill-opacity:1;stroke:none;stroke-width:0.26458332"
       x="13.22924"
       y="139.52881"
       id="text118"><tspan
         sodipodi:role="line"
         x="13.22924"
         y="139.52881"
         id="tspan116"
         style="stroke-width:0.26458332"><tspan
           x="13.22924"
           y="139.52881"
           style="font-weight:bold;stroke-width:0.26458332"
           id="tspan114">Project: Image Classification</tspan></tspan></text>
    <circle
       r="9.2810249"
       cy="263.56476"
       cx="92.580032"
       id="circle906"
       style="fill:#ffa667;fill-opacity:1;stroke:#ff6900;stroke-width:2.25788736;stroke-miterlimit:4;stroke-dasharray:none;stroke-opacity:1" />
    <circle
       style="fill:#ffa667;fill-opacity:1;stroke:#ff6900;stroke-width:2.25788736;stroke-miterlimit:4;stroke-dasharray:none;stroke-opacity:1"
       id="circle908"
       cx="150.84479"
       cy="213.05678"
       r="9.2810249" />
    <circle
       r="9.2810249"
       cy="213.05678"
       cx="96.100456"
       id="circle910"
       style="fill:#ffa667;fill-opacity:1;stroke:#ff6900;stroke-width:2.25788736;stroke-miterlimit:4;stroke-dasharray:none;stroke-opacity:1" />
    <text
       xml:space="preserve"
       style="font-style:normal;font-weight:normal;font-size:10.58333302px;line-height:0.69999999;font-family:sans-serif;letter-spacing:0px;word-spacing:0px;fill:#000000;fill-opacity:1;stroke:none;stroke-width:0.26458332"
       x="197.20409"
       y="231.01817"
       id="text172"><tspan
         sodipodi:role="line"
         x="197.20409"
         y="231.01817"
         id="tspan160"
         style="stroke-width:0.26458332;text-anchor:start;text-align:start"><tspan
           x="197.20409"
           y="231.01817"
           style="font-size:4.93888855px;line-height:0.69999999;text-align:start;text-anchor:start;stroke-width:0.26458332"
           id="tspan156">build a</tspan></tspan><tspan
         sodipodi:role="line"
         x="187.89543"
         y="238.42651"
         id="tspan166"
         style="stroke-width:0.26458332;text-anchor:start;text-align:start"><tspan
           x="187.89543"
           y="238.42651"
           style="font-size:4.93888855px;line-height:0.69999999;text-align:start;text-anchor:start;stroke-width:0.26458332"
           id="tspan162">command-line</tspan></tspan><tspan
         sodipodi:role="line"
         x="194.55618"
         y="245.83484"
         id="tspan170"
         style="stroke-width:0.26458332;text-anchor:start;text-align:start"><tspan
           x="194.55618"
           y="245.83484"
           style="font-size:4.93888855px;line-height:0.69999999;text-align:start;text-anchor:start;stroke-width:0.26458332"
           id="tspan168">interface</tspan></tspan></text>
    <circle
       style="fill:none;fill-opacity:1;stroke:#000000;stroke-width:0.53583056;stroke-miterlimit:4;stroke-dasharray:none;stroke-opacity:1"
       id="circle985"
       cx="96.100456"
       cy="213.05678"
       r="10.330469" />
    <circle
       style="fill:#ffa667;fill-opacity:1;stroke:#ff6900;stroke-width:2.25788736;stroke-miterlimit:4;stroke-dasharray:none;stroke-opacity:1"
       id="circle912"
       cx="37.514153"
       cy="213.24519"
       r="9.2810249" />
    <text
       xml:space="preserve"
       style="font-style:normal;font-weight:normal;font-size:10.58333302px;line-height:0.69999999;font-family:sans-serif;letter-spacing:0px;word-spacing:0px;fill:#000000;fill-opacity:1;stroke:none;stroke-width:0.26458332"
       x="29.411293"
       y="231.01817"
       id="text154"><tspan
         sodipodi:role="line"
         x="29.411293"
         y="231.01817"
         id="tspan148"
         style="stroke-width:0.26458332;text-anchor:start;text-align:start"><tspan
           x="29.411293"
           y="231.01817"
           style="font-size:4.93888855px;line-height:0.69999999;text-align:start;text-anchor:start;stroke-width:0.26458332"
           id="tspan144">collect</tspan></tspan><tspan
         sodipodi:role="line"
         x="21.853437"
         y="238.42651"
         id="tspan152"
         style="stroke-width:0.26458332;text-anchor:start;text-align:start"><tspan
           x="21.853437"
           y="238.42651"
           style="font-size:4.93888855px;line-height:0.69999999;text-align:start;text-anchor:start;stroke-width:0.26458332"
           id="tspan150">photographs</tspan></tspan></text>
    <circle
       style="fill:none;fill-opacity:1;stroke:#000000;stroke-width:0.53583056;stroke-miterlimit:4;stroke-dasharray:none;stroke-opacity:1"
       id="circle1008"
       cx="37.514153"
       cy="213.24519"
       r="10.330469" />
    <text
       xml:space="preserve"
       style="font-style:normal;font-weight:normal;font-size:10.58333302px;line-height:0.69999999;font-family:sans-serif;letter-spacing:0px;word-spacing:0px;fill:#000000;fill-opacity:1;stroke:none;stroke-width:0.26458332"
       x="77.936539"
       y="231.01817"
       id="text142"><tspan
         sodipodi:role="line"
         x="77.936539"
         y="231.01817"
         id="tspan136"
         style="stroke-width:0.26458332;text-anchor:start;text-align:start"><tspan
           x="77.936539"
           y="231.01817"
           style="font-size:4.93888855px;line-height:0.69999999;text-align:start;text-anchor:start;stroke-width:0.26458332"
           id="tspan132">use pretrained</tspan></tspan><tspan
         sodipodi:role="line"
         x="90.568329"
         y="238.42651"
         id="tspan140"
         style="stroke-width:0.26458332;text-anchor:start;text-align:start"><tspan
           x="90.568329"
           y="238.42651"
           style="font-size:4.93888855px;line-height:0.69999999;text-align:start;text-anchor:start;stroke-width:0.26458332"
           id="tspan138">CNN</tspan></tspan></text>
    <circle
       r="10.330469"
       cy="263.56476"
       cx="92.580032"
       id="circle1010"
       style="fill:none;fill-opacity:1;stroke:#000000;stroke-width:0.53583056;stroke-miterlimit:4;stroke-dasharray:none;stroke-opacity:1" />
    <circle
       style="fill:none;fill-opacity:1;stroke:#000000;stroke-width:0.53583056;stroke-miterlimit:4;stroke-dasharray:none;stroke-opacity:1"
       id="circle1012"
       cx="260.33344"
       cy="213.05678"
       r="10.330469" />
    <circle
       style="fill:none;fill-opacity:1;stroke:#000000;stroke-width:0.53583056;stroke-miterlimit:4;stroke-dasharray:none;stroke-opacity:1"
       id="circle1016"
       cx="150.84479"
       cy="213.05678"
       r="10.330469" />
    <circle
       style="fill:#ffa667;fill-opacity:1;stroke:#ff6900;stroke-width:2.25788736;stroke-miterlimit:4;stroke-dasharray:none;stroke-opacity:1"
       id="circle904"
       cx="205.58911"
       cy="213.05678"
       r="9.2810249" />
    <circle
       r="10.330469"
       cy="213.05678"
       cx="205.58911"
       id="circle1014"
       style="fill:none;fill-opacity:1;stroke:#000000;stroke-width:0.53583056;stroke-miterlimit:4;stroke-dasharray:none;stroke-opacity:1" />
    <circle
       style="fill:#ffa667;fill-opacity:1;stroke:#ff6900;stroke-width:2.25788736;stroke-miterlimit:4;stroke-dasharray:none;stroke-opacity:1"
       id="circle187"
       cx="205.90231"
       cy="163.87321"
       r="9.2810249" />
    <circle
       style="fill:none;fill-opacity:1;stroke:#000000;stroke-width:0.53583056;stroke-miterlimit:4;stroke-dasharray:none;stroke-opacity:1"
       id="circle189"
       cx="205.90231"
       cy="163.87321"
       r="10.330469" />
    <text
       xml:space="preserve"
       style="font-style:normal;font-weight:normal;font-size:10.58333302px;line-height:0.69999999;font-family:sans-serif;letter-spacing:0px;word-spacing:0px;fill:#000000;fill-opacity:1;stroke:none;stroke-width:0.26458332"
       x="137.48833"
       y="231.01817"
       id="text130"><tspan
         sodipodi:role="line"
         x="137.48833"
         y="231.01817"
         id="tspan124"
         style="stroke-width:0.26458332;text-anchor:start;text-align:start"><tspan
           x="137.48833"
           y="231.01817"
           style="font-size:4.93888855px;line-height:0.69999999;text-align:start;text-anchor:start;stroke-width:0.26458332"
           id="tspan120">implement</tspan></tspan><tspan
         sodipodi:role="line"
         x="140.43526"
         y="238.42651"
         id="tspan128"
         style="stroke-width:0.26458332;text-anchor:start;text-align:start"><tspan
           x="140.43526"
           y="238.42651"
           style="font-size:4.93888855px;line-height:0.69999999;text-align:start;text-anchor:start;stroke-width:0.26458332"
           id="tspan126">FastRNN</tspan></tspan></text>
  </g>
</svg>
