<?xml version="1.0" encoding="UTF-8" standalone="no"?>
<!-- Created with Inkscape (http://www.inkscape.org/) -->

<svg
   xmlns:dc="http://purl.org/dc/elements/1.1/"
   xmlns:cc="http://creativecommons.org/ns#"
   xmlns:rdf="http://www.w3.org/1999/02/22-rdf-syntax-ns#"
   xmlns:svg="http://www.w3.org/2000/svg"
   xmlns="http://www.w3.org/2000/svg"
   xmlns:sodipodi="http://sodipodi.sourceforge.net/DTD/sodipodi-0.dtd"
   xmlns:inkscape="http://www.inkscape.org/namespaces/inkscape"
   width="350mm"
   height="180mm"
   viewBox="0 0 350 180"
   version="1.1"
   id="svg8"
   inkscape:version="0.92.2 (5c3e80d, 2017-08-06)"
   sodipodi:docname="roadmap_deep_learning.svg">
  <defs
     id="defs2">
    <clipPath
       clipPathUnits="userSpaceOnUse"
       id="clipPath2567">
      <rect
         style="fill:#b3b3b3;fill-opacity:1;stroke:none;stroke-width:0.41039768"
         id="rect2569"
         width="64.946495"
         height="33.675961"
         x="124.3401"
         y="109.78903" />
    </clipPath>
    <clipPath
       clipPathUnits="userSpaceOnUse"
       id="clipPath2579">
      <rect
         y="108.71994"
         x="127.28006"
         height="33.675961"
         width="59.333836"
         id="rect2581"
         style="fill:#b3b3b3;fill-opacity:1;stroke:none;stroke-width:0.3922638" />
    </clipPath>
  </defs>
  <sodipodi:namedview
     id="base"
     pagecolor="#ffffff"
     bordercolor="#666666"
     borderopacity="1.0"
     inkscape:pageopacity="0.0"
     inkscape:pageshadow="2"
     inkscape:zoom="0.7"
     inkscape:cx="776.57523"
     inkscape:cy="223.27052"
     inkscape:document-units="mm"
     inkscape:current-layer="layer1"
     showgrid="false"
     inkscape:object-nodes="false"
     inkscape:window-width="1613"
     inkscape:window-height="995"
     inkscape:window-x="67"
     inkscape:window-y="27"
     inkscape:window-maximized="1" />
  <metadata
     id="metadata5">
    <rdf:RDF>
      <cc:Work
         rdf:about="">
        <dc:format>image/svg+xml</dc:format>
        <dc:type
           rdf:resource="http://purl.org/dc/dcmitype/StillImage" />
        <dc:title></dc:title>
      </cc:Work>
    </rdf:RDF>
  </metadata>
  <g
     inkscape:label="Layer 1"
     inkscape:groupmode="layer"
     id="layer1"
     transform="translate(0,-117)">
    <g
       id="g257"
       transform="rotate(42.112747,26.751894,197.03926)">
      <rect
         style="fill:#b3b3b3;fill-opacity:1;stroke:none;stroke-width:0.26458332"
         id="rect253"
         width="79.913589"
         height="7.7508225"
         x="130.29385"
         y="122.07188" />
      <path
         id="path255"
         transform="matrix(0.26458333,0,0,0.26458333,0,87)"
         d="m 492.44922,132.55664 v 29.29297 h 8.36133 l 7.46093,-14.64649 -7.46289,-14.64648 z m 38.5957,0 7.46289,14.64648 -7.46093,14.64649 h 32.4414 l 7.46094,-14.64649 -7.46289,-14.64648 z m 62.67774,0 7.46289,14.64648 -7.46094,14.64649 h 32.44336 l 7.46094,-14.64649 -7.46289,-14.64648 z m 62.67968,0 7.46289,14.64648 -7.46093,14.64649 h 32.4414 l 7.46094,-14.64649 -7.46289,-14.64648 z m 62.67774,0 7.46289,14.64648 -7.46094,14.64649 h 32.44336 l 7.46094,-14.64649 -7.46289,-14.64648 z m 62.67969,0 7.46289,14.64648 -7.46094,14.64649 h 12.72266 v -29.29297 z"
         style="fill:#cccccc;fill-opacity:1;stroke-width:0.99999994"
         inkscape:connector-curvature="0" />
    </g>
    <text
       xml:space="preserve"
       style="font-style:normal;font-weight:normal;font-size:10.58333302px;line-height:0.69999999;font-family:sans-serif;letter-spacing:0px;word-spacing:0px;fill:#000000;fill-opacity:1;stroke:none;stroke-width:0.26458332"
       x="198.80635"
       y="282.00128"
       id="text275"><tspan
         sodipodi:role="line"
         x="198.80635"
         y="282.00128"
         id="tspan269"
         style="stroke-width:0.26458332"><tspan
           x="198.80635"
           y="282.00128"
           style="font-size:4.93888855px;line-height:0.69999999;stroke-width:0.26458332"
           id="tspan265">apply</tspan><tspan
           dx="0"
           x="212.39795"
           y="282.00128"
           style="font-size:4.93888855px;line-height:0.69999999;stroke-width:0.26458332"
           id="tspan267" /></tspan><tspan
         sodipodi:role="line"
         x="198.80635"
         y="289.40961"
         id="tspan273"
         style="stroke-width:0.26458332"><tspan
           x="198.80635"
           y="289.40961"
           style="font-size:4.93888855px;line-height:0.69999999;stroke-width:0.26458332"
           id="tspan271">t-SNE</tspan></tspan></text>
    <circle
       style="fill:#ffa667;fill-opacity:1;stroke:#ff6900;stroke-width:2.25788736;stroke-miterlimit:4;stroke-dasharray:none;stroke-opacity:1"
       id="circle269"
       cx="205.59491"
       cy="263.56476"
       r="9.2810249" />
    <circle
       style="fill:none;fill-opacity:1;stroke:#000000;stroke-width:0.53583056;stroke-miterlimit:4;stroke-dasharray:none;stroke-opacity:1"
       id="circle271"
       cx="205.59491"
       cy="263.56476"
       r="10.330469" />
    <g
       id="g2607"
       transform="translate(-10.205357,45.217152)">
      <g
         clip-path="url(#clipPath2567)"
         transform="translate(-80.939593,41.892334)"
         id="g2546">
        <rect
           y="122.07188"
           x="130.29385"
           height="7.7508225"
           width="79.913589"
           id="rect2530"
           style="fill:#b3b3b3;fill-opacity:1;stroke:none;stroke-width:0.26458332" />
        <path
           inkscape:connector-curvature="0"
           style="fill:#cccccc;fill-opacity:1;stroke-width:0.99999994"
           d="m 492.44922,132.55664 v 29.29297 h 8.36133 l 7.46093,-14.64649 -7.46289,-14.64648 z m 38.5957,0 7.46289,14.64648 -7.46093,14.64649 h 32.4414 l 7.46094,-14.64649 -7.46289,-14.64648 z m 62.67774,0 7.46289,14.64648 -7.46094,14.64649 h 32.44336 l 7.46094,-14.64649 -7.46289,-14.64648 z m 62.67968,0 7.46289,14.64648 -7.46093,14.64649 h 32.4414 l 7.46094,-14.64649 -7.46289,-14.64648 z m 62.67774,0 7.46289,14.64648 -7.46094,14.64649 h 32.44336 l 7.46094,-14.64649 -7.46289,-14.64648 z m 62.67969,0 7.46289,14.64648 -7.46094,14.64649 h 12.72266 v -29.29297 z"
           transform="matrix(0.26458333,0,0,0.26458333,0,87)"
           id="rect2504" />
      </g>
      <g
         id="g2575"
         transform="translate(-22.674836,41.892334)"
         clip-path="url(#clipPath2579)">
        <rect
           style="fill:#b3b3b3;fill-opacity:1;stroke:none;stroke-width:0.26458332"
           id="rect2571"
           width="79.913589"
           height="7.7508225"
           x="130.29385"
           y="122.07188" />
        <path
           id="path2573"
           transform="matrix(0.26458333,0,0,0.26458333,0,87)"
           d="m 492.44922,132.55664 v 29.29297 h 8.36133 l 7.46093,-14.64649 -7.46289,-14.64648 z m 38.5957,0 7.46289,14.64648 -7.46093,14.64649 h 32.4414 l 7.46094,-14.64649 -7.46289,-14.64648 z m 62.67774,0 7.46289,14.64648 -7.46094,14.64649 h 32.44336 l 7.46094,-14.64649 -7.46289,-14.64648 z m 62.67968,0 7.46289,14.64648 -7.46093,14.64649 h 32.4414 l 7.46094,-14.64649 -7.46289,-14.64648 z m 62.67774,0 7.46289,14.64648 -7.46094,14.64649 h 32.44336 l 7.46094,-14.64649 -7.46289,-14.64648 z m 62.67969,0 7.46289,14.64648 -7.46094,14.64649 h 12.72266 v -29.29297 z"
           style="fill:#cccccc;fill-opacity:1;stroke-width:0.99999994"
           inkscape:connector-curvature="0" />
      </g>
      <g
         clip-path="url(#clipPath2579)"
         transform="translate(30.24453,41.892334)"
         id="g2587">
        <rect
           y="122.07188"
           x="130.29385"
           height="7.7508225"
           width="79.913589"
           id="rect2583"
           style="fill:#b3b3b3;fill-opacity:1;stroke:none;stroke-width:0.26458332" />
        <path
           inkscape:connector-curvature="0"
           style="fill:#cccccc;fill-opacity:1;stroke-width:0.99999994"
           d="m 492.44922,132.55664 v 29.29297 h 8.36133 l 7.46093,-14.64649 -7.46289,-14.64648 z m 38.5957,0 7.46289,14.64648 -7.46093,14.64649 h 32.4414 l 7.46094,-14.64649 -7.46289,-14.64648 z m 62.67774,0 7.46289,14.64648 -7.46094,14.64649 h 32.44336 l 7.46094,-14.64649 -7.46289,-14.64648 z m 62.67968,0 7.46289,14.64648 -7.46093,14.64649 h 32.4414 l 7.46094,-14.64649 -7.46289,-14.64648 z m 62.67774,0 7.46289,14.64648 -7.46094,14.64649 h 32.44336 l 7.46094,-14.64649 -7.46289,-14.64648 z m 62.67969,0 7.46289,14.64648 -7.46094,14.64649 h 12.72266 v -29.29297 z"
           transform="matrix(0.26458333,0,0,0.26458333,0,87)"
           id="path2585" />
      </g>
      <g
         id="g2593"
         transform="translate(80.655632,34.33281)"
         clip-path="url(#clipPath2579)">
        <rect
           style="fill:#b3b3b3;fill-opacity:1;stroke:none;stroke-width:0.26458332"
           id="rect2589"
           width="79.913589"
           height="7.7508225"
           x="135.20755"
           y="129.63139" />
        <path
           id="path2591"
           d="m 135.20754,129.6318 v 7.75043 h 2.21227 l 1.97404,-3.87521 -1.97456,-3.87522 z m 10.21178,0 1.97456,3.87522 -1.97404,3.87521 h 8.58346 l 1.97404,-3.87521 -1.97456,-3.87522 z m 16.58349,0 1.97456,3.87522 -1.97405,3.87521 h 8.58398 l 1.97404,-3.87521 -1.97456,-3.87522 z m 16.584,0 1.97455,3.87522 -1.97403,3.87521 h 8.58345 l 1.97404,-3.87521 -1.97456,-3.87522 z m 16.58348,0 1.97456,3.87522 -1.97404,3.87521 h 8.58397 l 1.97404,-3.87521 -1.97456,-3.87522 z m 16.584,0 1.97456,3.87522 -1.97404,3.87521 h 3.3662 v -7.75043 z"
           style="fill:#cccccc;fill-opacity:1;stroke-width:0.26458332"
           inkscape:connector-curvature="0" />
      </g>
    </g>
    <g
       id="g177"
       transform="matrix(0.74182667,-0.67059168,-0.67059168,-0.74182667,139.34691,393.33988)">
      <rect
         style="fill:#b3b3b3;fill-opacity:1;stroke:none;stroke-width:0.26458332"
         id="rect173"
         width="79.913589"
         height="7.7508225"
         x="130.29385"
         y="122.07188" />
      <path
         id="path175"
         transform="matrix(0.26458333,0,0,0.26458333,0,87)"
         d="m 492.44922,132.55664 v 29.29297 h 8.36133 l 7.46093,-14.64649 -7.46289,-14.64648 z m 38.5957,0 7.46289,14.64648 -7.46093,14.64649 h 32.4414 l 7.46094,-14.64649 -7.46289,-14.64648 z m 62.67774,0 7.46289,14.64648 -7.46094,14.64649 h 32.44336 l 7.46094,-14.64649 -7.46289,-14.64648 z m 62.67968,0 7.46289,14.64648 -7.46093,14.64649 h 32.4414 l 7.46094,-14.64649 -7.46289,-14.64648 z m 62.67774,0 7.46289,14.64648 -7.46094,14.64649 h 32.44336 l 7.46094,-14.64649 -7.46289,-14.64648 z m 62.67969,0 7.46289,14.64648 -7.46094,14.64649 h 12.72266 v -29.29297 z"
         style="fill:#cccccc;fill-opacity:1;stroke-width:0.99999994"
         inkscape:connector-curvature="0" />
    </g>
    <g
       transform="translate(46.474775,45.217152)"
       id="g135">
      <g
         id="g115"
         transform="translate(-80.939593,41.892334)"
         clip-path="url(#clipPath2567)">
        <rect
           style="fill:#b3b3b3;fill-opacity:1;stroke:none;stroke-width:0.26458332"
           id="rect111"
           width="79.913589"
           height="7.7508225"
           x="130.29385"
           y="122.07188" />
        <path
           id="path113"
           transform="matrix(0.26458333,0,0,0.26458333,0,87)"
           d="m 492.44922,132.55664 v 29.29297 h 8.36133 l 7.46093,-14.64649 -7.46289,-14.64648 z m 38.5957,0 7.46289,14.64648 -7.46093,14.64649 h 32.4414 l 7.46094,-14.64649 -7.46289,-14.64648 z m 62.67774,0 7.46289,14.64648 -7.46094,14.64649 h 32.44336 l 7.46094,-14.64649 -7.46289,-14.64648 z m 62.67968,0 7.46289,14.64648 -7.46093,14.64649 h 32.4414 l 7.46094,-14.64649 -7.46289,-14.64648 z m 62.67774,0 7.46289,14.64648 -7.46094,14.64649 h 32.44336 l 7.46094,-14.64649 -7.46289,-14.64648 z m 62.67969,0 7.46289,14.64648 -7.46094,14.64649 h 12.72266 v -29.29297 z"
           style="fill:#cccccc;fill-opacity:1;stroke-width:0.99999994"
           inkscape:connector-curvature="0" />
      </g>
      <g
         clip-path="url(#clipPath2579)"
         transform="translate(-22.674836,41.892334)"
         id="g121">
        <rect
           y="122.07188"
           x="130.29385"
           height="7.7508225"
           width="79.913589"
           id="rect117"
           style="fill:#b3b3b3;fill-opacity:1;stroke:none;stroke-width:0.26458332" />
        <path
           inkscape:connector-curvature="0"
           style="fill:#cccccc;fill-opacity:1;stroke-width:0.99999994"
           d="m 492.44922,132.55664 v 29.29297 h 8.36133 l 7.46093,-14.64649 -7.46289,-14.64648 z m 38.5957,0 7.46289,14.64648 -7.46093,14.64649 h 32.4414 l 7.46094,-14.64649 -7.46289,-14.64648 z m 62.67774,0 7.46289,14.64648 -7.46094,14.64649 h 32.44336 l 7.46094,-14.64649 -7.46289,-14.64648 z m 62.67968,0 7.46289,14.64648 -7.46093,14.64649 h 32.4414 l 7.46094,-14.64649 -7.46289,-14.64648 z m 62.67774,0 7.46289,14.64648 -7.46094,14.64649 h 32.44336 l 7.46094,-14.64649 -7.46289,-14.64648 z m 62.67969,0 7.46289,14.64648 -7.46094,14.64649 h 12.72266 v -29.29297 z"
           transform="matrix(0.26458333,0,0,0.26458333,0,87)"
           id="path119" />
      </g>
      <g
         id="g127"
         transform="translate(30.24453,41.892334)"
         clip-path="url(#clipPath2579)">
        <rect
           style="fill:#b3b3b3;fill-opacity:1;stroke:none;stroke-width:0.26458332"
           id="rect123"
           width="79.913589"
           height="7.7508225"
           x="130.29385"
           y="122.07188" />
        <path
           id="path125"
           transform="matrix(0.26458333,0,0,0.26458333,0,87)"
           d="m 492.44922,132.55664 v 29.29297 h 8.36133 l 7.46093,-14.64649 -7.46289,-14.64648 z m 38.5957,0 7.46289,14.64648 -7.46093,14.64649 h 32.4414 l 7.46094,-14.64649 -7.46289,-14.64648 z m 62.67774,0 7.46289,14.64648 -7.46094,14.64649 h 32.44336 l 7.46094,-14.64649 -7.46289,-14.64648 z m 62.67968,0 7.46289,14.64648 -7.46093,14.64649 h 32.4414 l 7.46094,-14.64649 -7.46289,-14.64648 z m 62.67774,0 7.46289,14.64648 -7.46094,14.64649 h 32.44336 l 7.46094,-14.64649 -7.46289,-14.64648 z m 62.67969,0 7.46289,14.64648 -7.46094,14.64649 h 12.72266 v -29.29297 z"
           style="fill:#cccccc;fill-opacity:1;stroke-width:0.99999994"
           inkscape:connector-curvature="0" />
      </g>
      <g
         clip-path="url(#clipPath2579)"
         transform="translate(80.655632,34.33281)"
         id="g133">
        <rect
           y="129.63139"
           x="135.20755"
           height="7.7508225"
           width="79.913589"
           id="rect129"
           style="fill:#b3b3b3;fill-opacity:1;stroke:none;stroke-width:0.26458332" />
        <path
           inkscape:connector-curvature="0"
           style="fill:#cccccc;fill-opacity:1;stroke-width:0.26458332"
           d="m 135.20754,129.6318 v 7.75043 h 2.21227 l 1.97404,-3.87521 -1.97456,-3.87522 z m 10.21178,0 1.97456,3.87522 -1.97404,3.87521 h 8.58346 l 1.97404,-3.87521 -1.97456,-3.87522 z m 16.58349,0 1.97456,3.87522 -1.97405,3.87521 h 8.58398 l 1.97404,-3.87521 -1.97456,-3.87522 z m 16.584,0 1.97455,3.87522 -1.97403,3.87521 h 8.58345 l 1.97404,-3.87521 -1.97456,-3.87522 z m 16.58348,0 1.97456,3.87522 -1.97404,3.87521 h 8.58397 l 1.97404,-3.87521 -1.97456,-3.87522 z m 16.584,0 1.97456,3.87522 -1.97404,3.87521 h 3.3662 v -7.75043 z"
           id="path131" />
      </g>
    </g>
    <circle
       style="fill:#ffa667;fill-opacity:1;stroke:#ff6900;stroke-width:2.25788736;stroke-miterlimit:4;stroke-dasharray:none;stroke-opacity:1"
       id="circle137"
       cx="315.12369"
       cy="213.05678"
       r="9.2810249" />
    <text
       xml:space="preserve"
       style="font-style:normal;font-weight:normal;font-size:10.58333302px;line-height:0.69999999;font-family:sans-serif;letter-spacing:0px;word-spacing:0px;fill:#000000;fill-opacity:1;stroke:none;stroke-width:0.26458332"
       x="247.53043"
       y="230.73361"
       id="text251"><tspan
         sodipodi:role="line"
         x="247.53043"
         y="230.73361"
         id="tspan245"
         style="text-align:start;text-anchor:start;stroke-width:0.26458332"><tspan
           x="247.53043"
           y="230.73361"
           style="font-size:4.93888855px;line-height:0.69999999;text-align:start;text-anchor:start;stroke-width:0.26458332"
           id="tspan241">publish on</tspan></tspan><tspan
         sodipodi:role="line"
         x="251.76035"
         y="238.14195"
         id="tspan249"
         style="text-align:start;text-anchor:start;stroke-width:0.26458332"><tspan
           x="251.76035"
           y="238.14195"
           style="font-size:4.93888855px;line-height:0.69999999;text-align:start;text-anchor:start;stroke-width:0.26458332"
           id="tspan247">GitHub</tspan></tspan></text>
    <text
       xml:space="preserve"
       style="font-style:normal;font-weight:normal;font-size:10.58333302px;line-height:0.69999999;font-family:sans-serif;letter-spacing:0px;word-spacing:0px;fill:#000000;fill-opacity:1;stroke:none;stroke-width:0.26458332"
       x="304.17877"
       y="231.01817"
       id="text239"><tspan
         sodipodi:role="line"
         x="304.17877"
         y="231.01817"
         id="tspan233"
         style="text-align:start;text-anchor:start;stroke-width:0.26458332"><tspan
           x="304.17877"
           y="231.01817"
           style="font-size:4.93888855px;line-height:0.69999999;text-align:start;text-anchor:start;stroke-width:0.26458332"
           id="tspan229">compare</tspan></tspan><tspan
         sodipodi:role="line"
         x="293.55344"
         y="238.42651"
         id="tspan237"
         style="text-align:start;text-anchor:start;stroke-width:0.26458332"><tspan
           x="293.55344"
           y="238.42651"
           style="font-size:4.93888855px;line-height:0.69999999;text-align:start;text-anchor:start;stroke-width:0.26458332"
           id="tspan235">hyperparameters</tspan></tspan></text>
    <circle
       r="10.330469"
       cy="213.05678"
       cx="315.12369"
       id="circle159"
       style="fill:none;fill-opacity:1;stroke:#000000;stroke-width:0.53583056;stroke-miterlimit:4;stroke-dasharray:none;stroke-opacity:1" />
    <circle
       r="9.2810249"
       cy="213.05678"
       cx="260.37936"
       id="circle161"
       style="fill:#ffa667;fill-opacity:1;stroke:#ff6900;stroke-width:2.25788736;stroke-miterlimit:4;stroke-dasharray:none;stroke-opacity:1" />
    <circle
       style="fill:none;fill-opacity:1;stroke:#000000;stroke-width:0.53583056;stroke-miterlimit:4;stroke-dasharray:none;stroke-opacity:1"
       id="circle163"
       cx="260.37936"
       cy="213.05678"
       r="10.330469" />
    <g
       transform="rotate(42.112747,-29.755547,50.264157)"
       id="g2552">
      <rect
         y="122.07188"
         x="130.29385"
         height="7.7508225"
         width="79.913589"
         id="rect2548"
         style="fill:#b3b3b3;fill-opacity:1;stroke:none;stroke-width:0.26458332" />
      <path
         inkscape:connector-curvature="0"
         style="fill:#cccccc;fill-opacity:1;stroke-width:0.99999994"
         d="m 492.44922,132.55664 v 29.29297 h 8.36133 l 7.46093,-14.64649 -7.46289,-14.64648 z m 38.5957,0 7.46289,14.64648 -7.46093,14.64649 h 32.4414 l 7.46094,-14.64649 -7.46289,-14.64648 z m 62.67774,0 7.46289,14.64648 -7.46094,14.64649 h 32.44336 l 7.46094,-14.64649 -7.46289,-14.64648 z m 62.67968,0 7.46289,14.64648 -7.46093,14.64649 h 32.4414 l 7.46094,-14.64649 -7.46289,-14.64648 z m 62.67774,0 7.46289,14.64648 -7.46094,14.64649 h 32.44336 l 7.46094,-14.64649 -7.46289,-14.64648 z m 62.67969,0 7.46289,14.64648 -7.46094,14.64649 h 12.72266 v -29.29297 z"
         transform="matrix(0.26458333,0,0,0.26458333,0,87)"
         id="path2550" />
    </g>
    <text
       xml:space="preserve"
       style="font-style:normal;font-weight:normal;font-size:10.58333302px;line-height:0.69999999;font-family:sans-serif;letter-spacing:0px;word-spacing:0px;fill:#000000;fill-opacity:1;stroke:none;stroke-width:0.26458332"
       x="193.23314"
       y="182.30975"
       id="text281"><tspan
         sodipodi:role="line"
         x="193.23314"
         y="182.30975"
         id="tspan279"
         style="text-align:start;text-anchor:start;stroke-width:0.26458332"><tspan
           x="193.23314"
           y="182.30975"
           style="font-size:4.93888855px;line-height:0.69999999;text-align:start;text-anchor:start;stroke-width:0.26458332"
           id="tspan277">apply PCA</tspan></tspan></text>
    <text
       xml:space="preserve"
       style="font-style:normal;font-weight:normal;font-size:10.58333302px;line-height:0.69999999;font-family:sans-serif;letter-spacing:0px;word-spacing:0px;fill:#000000;fill-opacity:1;stroke:none;stroke-width:0.26458332"
       x="79.241653"
       y="282.00128"
       id="text263"><tspan
         sodipodi:role="line"
         x="79.241653"
         y="282.00128"
         id="tspan257"
         style="text-align:start;text-anchor:start;stroke-width:0.26458332"><tspan
           x="79.241653"
           y="282.00128"
           style="font-size:4.93888855px;line-height:0.69999999;text-align:start;text-anchor:start;stroke-width:0.26458332"
           id="tspan253">implement</tspan></tspan><tspan
         sodipodi:role="line"
         x="71.756149"
         y="289.40961"
         id="tspan261"
         style="text-align:start;text-anchor:start;stroke-width:0.26458332"><tspan
           x="71.756149"
           y="289.40961"
           style="font-size:4.93888855px;line-height:0.69999999;text-align:start;text-anchor:start;stroke-width:0.26458332"
           id="tspan259">backpropagation</tspan></tspan></text>
    <text
       xml:space="preserve"
       style="font-style:normal;font-weight:normal;font-size:10.58333302px;line-height:1.25;font-family:sans-serif;letter-spacing:0px;word-spacing:0px;fill:#000000;fill-opacity:1;stroke:none;stroke-width:0.26458332"
       x="13.22924"
       y="139.52881"
       id="text149"><tspan
         sodipodi:role="line"
         x="13.22924"
         y="139.52881"
         id="tspan147"
         style="stroke-width:0.26458332"><tspan
           x="13.22924"
           y="139.52881"
           style="font-weight:bold;stroke-width:0.26458332"
           id="tspan145">Project: Deep Learning</tspan></tspan></text>
    <circle
       r="9.2810249"
       cy="263.56476"
       cx="92.580032"
       id="circle906"
       style="fill:#ffa667;fill-opacity:1;stroke:#ff6900;stroke-width:2.25788736;stroke-miterlimit:4;stroke-dasharray:none;stroke-opacity:1" />
    <circle
       style="fill:#ffa667;fill-opacity:1;stroke:#ff6900;stroke-width:2.25788736;stroke-miterlimit:4;stroke-dasharray:none;stroke-opacity:1"
       id="circle908"
       cx="150.84479"
       cy="213.05678"
       r="9.2810249" />
    <circle
       r="9.2810249"
       cy="213.05678"
       cx="96.100456"
       id="circle910"
       style="fill:#ffa667;fill-opacity:1;stroke:#ff6900;stroke-width:2.25788736;stroke-miterlimit:4;stroke-dasharray:none;stroke-opacity:1" />
    <text
       xml:space="preserve"
       style="font-style:normal;font-weight:normal;font-size:10.58333302px;line-height:0.69999999;font-family:sans-serif;letter-spacing:0px;word-spacing:0px;fill:#000000;fill-opacity:1;stroke:none;stroke-width:0.26458332"
       x="193.96776"
       y="231.01817"
       id="text227"><tspan
         sodipodi:role="line"
         x="193.96776"
         y="231.01817"
         id="tspan221"
         style="text-align:start;text-anchor:start;stroke-width:0.26458332"><tspan
           x="193.96776"
           y="231.01817"
           style="font-size:4.93888855px;line-height:0.69999999;text-align:start;text-anchor:start;stroke-width:0.26458332"
           id="tspan217">construct</tspan></tspan><tspan
         sodipodi:role="line"
         x="196.32626"
         y="238.42651"
         id="tspan225"
         style="text-align:start;text-anchor:start;stroke-width:0.26458332"><tspan
           x="196.32626"
           y="238.42651"
           style="font-size:4.93888855px;line-height:0.69999999;text-align:start;text-anchor:start;stroke-width:0.26458332"
           id="tspan223">an ANN</tspan></tspan></text>
    <circle
       style="fill:none;fill-opacity:1;stroke:#000000;stroke-width:0.53583056;stroke-miterlimit:4;stroke-dasharray:none;stroke-opacity:1"
       id="circle985"
       cx="96.100456"
       cy="213.05678"
       r="10.330469" />
    <circle
       style="fill:#ffa667;fill-opacity:1;stroke:#ff6900;stroke-width:2.25788736;stroke-miterlimit:4;stroke-dasharray:none;stroke-opacity:1"
       id="circle912"
       cx="37.514153"
       cy="213.24519"
       r="9.2810249" />
    <text
       xml:space="preserve"
       style="font-style:normal;font-weight:normal;font-size:10.58333302px;line-height:0.69999999;font-family:sans-serif;letter-spacing:0px;word-spacing:0px;fill:#000000;fill-opacity:1;stroke:none;stroke-width:0.26458332"
       x="25.644421"
       y="231.01817"
       id="text215"><tspan
         sodipodi:role="line"
         x="25.644421"
         y="231.01817"
         id="tspan209"
         style="text-align:start;text-anchor:start;stroke-width:0.26458332"><tspan
           x="25.644421"
           y="231.01817"
           style="font-size:4.93888855px;line-height:0.69999999;text-align:start;text-anchor:start;stroke-width:0.26458332"
           id="tspan205">build MLP</tspan></tspan><tspan
         sodipodi:role="line"
         x="21.887205"
         y="238.42651"
         id="tspan213"
         style="text-align:start;text-anchor:start;stroke-width:0.26458332"><tspan
           x="21.887205"
           y="238.42651"
           style="font-size:4.93888855px;line-height:0.69999999;text-align:start;text-anchor:start;stroke-width:0.26458332"
           id="tspan211">from scratch</tspan></tspan></text>
    <circle
       style="fill:none;fill-opacity:1;stroke:#000000;stroke-width:0.53583056;stroke-miterlimit:4;stroke-dasharray:none;stroke-opacity:1"
       id="circle1008"
       cx="37.514153"
       cy="213.24519"
       r="10.330469" />
    <text
       xml:space="preserve"
       style="font-style:normal;font-weight:normal;font-size:10.58333302px;line-height:0.69999999;font-family:sans-serif;letter-spacing:0px;word-spacing:0px;fill:#000000;fill-opacity:1;stroke:none;stroke-width:0.26458332"
       x="80.184113"
       y="231.01817"
       id="text203"><tspan
         sodipodi:role="line"
         x="80.184113"
         y="231.01817"
         id="tspan201"
         style="text-align:start;text-anchor:start;stroke-width:0.26458332"><tspan
           x="80.184113"
           y="231.01817"
           style="font-size:4.93888855px;line-height:0.69999999;text-align:start;text-anchor:start;stroke-width:0.26458332"
           id="tspan199">install  Keras</tspan></tspan></text>
    <circle
       r="10.330469"
       cy="263.56476"
       cx="92.580032"
       id="circle1010"
       style="fill:none;fill-opacity:1;stroke:#000000;stroke-width:0.53583056;stroke-miterlimit:4;stroke-dasharray:none;stroke-opacity:1" />
    <circle
       style="fill:none;fill-opacity:1;stroke:#000000;stroke-width:0.53583056;stroke-miterlimit:4;stroke-dasharray:none;stroke-opacity:1"
       id="circle1012"
       cx="260.33344"
       cy="213.05678"
       r="10.330469" />
    <circle
       style="fill:none;fill-opacity:1;stroke:#000000;stroke-width:0.53583056;stroke-miterlimit:4;stroke-dasharray:none;stroke-opacity:1"
       id="circle1016"
       cx="150.84479"
       cy="213.05678"
       r="10.330469" />
    <circle
       style="fill:#ffa667;fill-opacity:1;stroke:#ff6900;stroke-width:2.25788736;stroke-miterlimit:4;stroke-dasharray:none;stroke-opacity:1"
       id="circle904"
       cx="205.58911"
       cy="213.05678"
       r="9.2810249" />
    <circle
       r="10.330469"
       cy="213.05678"
       cx="205.58911"
       id="circle1014"
       style="fill:none;fill-opacity:1;stroke:#000000;stroke-width:0.53583056;stroke-miterlimit:4;stroke-dasharray:none;stroke-opacity:1" />
    <circle
       style="fill:#ffa667;fill-opacity:1;stroke:#ff6900;stroke-width:2.25788736;stroke-miterlimit:4;stroke-dasharray:none;stroke-opacity:1"
       id="circle187"
       cx="205.90231"
       cy="163.87321"
       r="9.2810249" />
    <circle
       style="fill:none;fill-opacity:1;stroke:#000000;stroke-width:0.53583056;stroke-miterlimit:4;stroke-dasharray:none;stroke-opacity:1"
       id="circle189"
       cx="205.90231"
       cy="163.87321"
       r="10.330469" />
    <text
       xml:space="preserve"
       style="font-style:normal;font-weight:normal;font-size:10.58333302px;line-height:0.69999999;font-family:sans-serif;letter-spacing:0px;word-spacing:0px;fill:#000000;fill-opacity:1;stroke:none;stroke-width:0.26458332"
       x="138.87256"
       y="231.01817"
       id="text197"><tspan
         sodipodi:role="line"
         x="138.87256"
         y="231.01817"
         id="tspan191"
         style="text-align:start;text-anchor:start;stroke-width:0.26458332"><tspan
           x="138.87256"
           y="231.01817"
           style="font-size:4.93888855px;line-height:0.69999999;text-align:start;text-anchor:start;stroke-width:0.26458332"
           id="tspan187">download</tspan></tspan><tspan
         sodipodi:role="line"
         x="136.67804"
         y="238.42651"
         id="tspan195"
         style="text-align:start;text-anchor:start;stroke-width:0.26458332"><tspan
           x="136.67804"
           y="238.42651"
           style="font-size:4.93888855px;line-height:0.69999999;text-align:start;text-anchor:start;stroke-width:0.26458332"
           id="tspan193">MNIST data</tspan></tspan></text>
    <g
       id="g435"
       transform="translate(-27.205068,-0.53453905)">
      <rect
         y="121.99"
         x="261.93048"
         height="59.545288"
         width="102.63457"
         id="rect408"
         style="fill:#f2f2f2;fill-opacity:1;stroke:#000000;stroke-width:0.48595643" />
      <path
         inkscape:transform-center-y="-1.1616231"
         inkscape:transform-center-x="1.5863867e-05"
         d="m 286.48178,139.68283 1.06515,3.18046 3.35395,0.0302 -2.69565,1.99584 1.0077,3.19912 -2.73115,-1.94696 -2.73115,1.94696 1.0077,-3.19912 -2.69564,-1.99584 3.35394,-0.0302 z"
         inkscape:randomized="0"
         inkscape:rounded="0"
         inkscape:flatsided="false"
         sodipodi:arg2="-0.94247777"
         sodipodi:arg1="-1.5707963"
         sodipodi:r2="1.8121396"
         sodipodi:r1="4.646512"
         sodipodi:cy="144.32935"
         sodipodi:cx="286.48178"
         sodipodi:sides="5"
         id="path345"
         style="fill:#ffff00;fill-opacity:1;stroke:#000000;stroke-width:0.43909404"
         sodipodi:type="star" />
      <g
         transform="matrix(0.87818809,0,0,0.87818809,59.871547,-80.300264)"
         id="g361">
        <path
           inkscape:transform-center-y="-1.3227534"
           inkscape:transform-center-x="7.3589531e-06"
           d="m 264.07358,265.5855 1.21289,3.62162 3.81917,0.0344 -3.06956,2.27267 1.14748,3.64287 -3.10998,-2.21703 -3.10999,2.21703 1.14748,-3.64287 -3.06955,-2.27267 3.81916,-0.0344 z"
           inkscape:randomized="0"
           inkscape:rounded="0"
           inkscape:flatsided="false"
           sodipodi:arg2="-0.94247777"
           sodipodi:arg1="-1.5707963"
           sodipodi:r2="2.0634983"
           sodipodi:r1="5.2910213"
           sodipodi:cy="270.87653"
           sodipodi:cx="264.07358"
           sodipodi:sides="5"
           id="path347"
           style="fill:#ffff00;fill-opacity:1;stroke:#000000;stroke-width:0.5"
           sodipodi:type="star" />
        <path
           sodipodi:type="star"
           style="fill:#ffff00;fill-opacity:1;stroke:#000000;stroke-width:0.5"
           id="path349"
           sodipodi:sides="5"
           sodipodi:cx="252.01237"
           sodipodi:cy="270.87653"
           sodipodi:r1="5.2910213"
           sodipodi:r2="2.0634983"
           sodipodi:arg1="-1.5707963"
           sodipodi:arg2="-0.94247777"
           inkscape:flatsided="false"
           inkscape:rounded="0"
           inkscape:randomized="0"
           d="m 252.01238,265.5855 1.21289,3.62162 3.81917,0.0344 -3.06956,2.27267 1.14748,3.64287 -3.10999,-2.21703 -3.10998,2.21703 1.14748,-3.64287 -3.06956,-2.27267 3.81917,-0.0344 z"
           inkscape:transform-center-x="7.3589531e-06"
           inkscape:transform-center-y="-1.3227534" />
      </g>
      <g
         transform="matrix(0.87818809,0,0,0.87818809,54.575552,-78.998991)"
         id="g366">
        <path
           sodipodi:type="star"
           style="fill:#ffff00;fill-opacity:1;stroke:#000000;stroke-width:0.5"
           id="path353"
           sodipodi:sides="5"
           sodipodi:cx="264.07358"
           sodipodi:cy="284.48367"
           sodipodi:r1="5.2910213"
           sodipodi:r2="2.0634983"
           sodipodi:arg1="-1.5707963"
           sodipodi:arg2="-0.94247777"
           inkscape:flatsided="false"
           inkscape:rounded="0"
           inkscape:randomized="0"
           d="m 264.07358,279.19265 1.21289,3.62162 3.81917,0.0344 -3.06956,2.27267 1.14748,3.64287 -3.10998,-2.21703 -3.10999,2.21703 1.14748,-3.64287 -3.06955,-2.27267 3.81916,-0.0344 z"
           inkscape:transform-center-x="7.3589531e-06"
           inkscape:transform-center-y="-1.3227534" />
        <path
           inkscape:transform-center-y="-1.3227534"
           inkscape:transform-center-x="7.3589531e-06"
           d="m 252.01238,279.19265 1.21289,3.62162 3.81917,0.0344 -3.06956,2.27267 1.14748,3.64287 -3.10999,-2.21703 -3.10998,2.21703 1.14748,-3.64287 -3.06956,-2.27267 3.81917,-0.0344 z"
           inkscape:randomized="0"
           inkscape:rounded="0"
           inkscape:flatsided="false"
           sodipodi:arg2="-0.94247777"
           sodipodi:arg1="-1.5707963"
           sodipodi:r2="2.0634983"
           sodipodi:r1="5.2910213"
           sodipodi:cy="284.48367"
           sodipodi:cx="252.01237"
           sodipodi:sides="5"
           id="path355"
           style="fill:#ffff00;fill-opacity:1;stroke:#000000;stroke-width:0.5"
           sodipodi:type="star" />
        <path
           inkscape:transform-center-y="-1.3227534"
           inkscape:transform-center-x="7.3589531e-06"
           d="m 276.13477,279.19265 1.21289,3.62162 3.81917,0.0344 -3.06956,2.27267 1.14748,3.64287 -3.10998,-2.21703 -3.10999,2.21703 1.14748,-3.64287 -3.06955,-2.27267 3.81916,-0.0344 z"
           inkscape:randomized="0"
           inkscape:rounded="0"
           inkscape:flatsided="false"
           sodipodi:arg2="-0.94247777"
           sodipodi:arg1="-1.5707963"
           sodipodi:r2="2.0634983"
           sodipodi:r1="5.2910213"
           sodipodi:cy="284.48367"
           sodipodi:cx="276.13477"
           sodipodi:sides="5"
           id="path357"
           style="fill:#ffff00;fill-opacity:1;stroke:#000000;stroke-width:0.5"
           sodipodi:type="star" />
      </g>
      <text
         xml:space="preserve"
         style="font-style:normal;font-weight:normal;font-size:10.58333302px;line-height:0.69999999;font-family:sans-serif;letter-spacing:0px;word-spacing:0px;fill:#000000;fill-opacity:1;stroke:none;stroke-width:0.26458332"
         x="283.00778"
         y="131.70386"
         id="text155"><tspan
           sodipodi:role="line"
           x="283.00778"
           y="131.70386"
           id="tspan153"
           style="stroke-width:0.26458332"><tspan
             x="283.00778"
             y="131.70386"
             style="font-weight:bold;font-size:4.93888855px;line-height:0.69999999;text-align:center;text-anchor:middle;stroke-width:0.26458332"
             id="tspan151">benchmark:</tspan></tspan></text>
      <text
         xml:space="preserve"
         style="font-style:normal;font-weight:normal;font-size:10.58333302px;line-height:0.69999999;font-family:sans-serif;text-align:start;letter-spacing:0px;word-spacing:0px;text-anchor:start;fill:#000000;fill-opacity:1;stroke:none;stroke-width:0.26458332"
         x="308.75305"
         y="145.13875"
         id="text173"><tspan
           sodipodi:role="line"
           x="308.75305"
           y="145.13875"
           id="tspan171"
           style="stroke-width:0.26458332"><tspan
             x="308.75305"
             y="145.13875"
             style="font-size:4.93888855px;line-height:0.69999999;text-align:start;text-anchor:start;stroke-width:0.26458332"
             id="tspan169">80% accuracy</tspan></tspan></text>
      <text
         xml:space="preserve"
         style="font-style:normal;font-weight:normal;font-size:10.58333302px;line-height:0.69999999;font-family:sans-serif;text-align:start;letter-spacing:0px;word-spacing:0px;text-anchor:start;fill:#000000;fill-opacity:1;stroke:none;stroke-width:0.26458332"
         x="308.75305"
         y="158.38968"
         id="text167"><tspan
           sodipodi:role="line"
           x="308.75305"
           y="158.38968"
           id="tspan165"
           style="stroke-width:0.26458332"><tspan
             x="308.75305"
             y="158.38968"
             style="font-size:4.93888855px;line-height:0.69999999;text-align:start;text-anchor:start;stroke-width:0.26458332"
             id="tspan163">90% accuracy</tspan></tspan></text>
      <text
         xml:space="preserve"
         style="font-style:normal;font-weight:normal;font-size:10.58333302px;line-height:0.69999999;font-family:sans-serif;text-align:start;letter-spacing:0px;word-spacing:0px;text-anchor:start;fill:#000000;fill-opacity:1;stroke:none;stroke-width:0.26458332"
         x="308.75305"
         y="171.64059"
         id="text161"><tspan
           sodipodi:role="line"
           x="308.75305"
           y="171.64059"
           id="tspan159"
           style="stroke-width:0.26458332"><tspan
             x="308.75305"
             y="171.64059"
             style="font-size:4.93888855px;line-height:0.69999999;text-align:start;text-anchor:start;stroke-width:0.26458332"
             id="tspan157">97% accuracy</tspan></tspan></text>
    </g>
  </g>
</svg>
