<?xml version="1.0" encoding="UTF-8" standalone="no"?>
<svg
   xmlns:dc="http://purl.org/dc/elements/1.1/"
   xmlns:cc="http://creativecommons.org/ns#"
   xmlns:rdf="http://www.w3.org/1999/02/22-rdf-syntax-ns#"
   xmlns:svg="http://www.w3.org/2000/svg"
   xmlns="http://www.w3.org/2000/svg"
   xmlns:sodipodi="http://sodipodi.sourceforge.net/DTD/sodipodi-0.dtd"
   xmlns:inkscape="http://www.inkscape.org/namespaces/inkscape"
   version="1.1"
   x="0px"
   y="0px"
   viewBox="0 0 1000 1000"
   enable-background="new 0 0 100 100"
   xml:space="preserve"
   id="svg1048"
   sodipodi:docname="chili.svg"
   width="1000"
   height="1000"
   inkscape:version="0.92.2 (5c3e80d, 2017-08-06)"><metadata
     id="metadata1054"><rdf:RDF><cc:Work
         rdf:about=""><dc:format>image/svg+xml</dc:format><dc:type
           rdf:resource="http://purl.org/dc/dcmitype/StillImage" /><dc:title /></cc:Work></rdf:RDF></metadata><defs
     id="defs1052" /><sodipodi:namedview
     pagecolor="#ffffff"
     bordercolor="#666666"
     borderopacity="1"
     objecttolerance="10"
     gridtolerance="10"
     guidetolerance="10"
     inkscape:pageopacity="0"
     inkscape:pageshadow="2"
     inkscape:window-width="1373"
     inkscape:window-height="845"
     id="namedview1050"
     showgrid="false"
     inkscape:pagecheckerboard="true"
     inkscape:zoom="0.236"
     inkscape:cx="1026.6261"
     inkscape:cy="163.52721"
     inkscape:window-x="67"
     inkscape:window-y="27"
     inkscape:window-maximized="1"
     inkscape:current-layer="svg1048" /><g
     id="g1042"
     transform="matrix(5.9787585,1.4608091,-1.4608091,5.9787585,35.905371,39.345316)"
     style="fill:#aa0000"><path
       d="M 26.3,21.8 29,20.7 C 24,19.2 26.3,4.5 26.3,4.5 c 0,0 -8.3,-4.7 -5,7 3.3,11.7 5,10.3 5,10.3 z"
       id="path1038"
       inkscape:connector-curvature="0"
       style="fill:#008000" /><path
       d="M 78,88.2 C 45.9,43.7 49.2,29.1 43.6,23.5 39.4,19.3 33.4,18.7 28.1,23.2 c -1.4,1.2 -3.5,-1.1 -4.9,0.3 -5.6,5.6 -4.9,14.1 0,20.5 44.2,57.6 59.5,50.7 54.8,44.2 z M 44.9,36.4 C 43.6,35.7 38.2,24.2 33.8,24.4 v -0.6 c 0,0 3.2,-2.8 6.7,0 3.5,2.8 3.8,9.3 5.3,10.7 1.5,1.4 0.3,2.6 -0.9,1.9 z"
       id="path1040"
       inkscape:connector-curvature="0"
       style="fill:#aa0000" /></g><text
     xml:space="preserve"
     style="font-style:normal;font-variant:normal;font-weight:bold;font-stretch:normal;font-size:59.11209869px;line-height:1.25;font-family:Andika;-inkscape-font-specification:'Andika Bold';letter-spacing:0px;word-spacing:0px;fill:#aa0000;fill-opacity:1;stroke:none;stroke-width:1.4778024"
     x="66.50724"
     y="937.36963"
     id="text22"><tspan
       sodipodi:role="line"
       x="66.50724"
       y="937.36963"
       id="tspan20"
       style="font-size:177.33631897px;fill:#000000;fill-opacity:1;stroke-width:1.4778024">WARM-UP</tspan></text>
<g
     transform="matrix(5.9787585,1.4608091,-1.4608091,5.9787585,304.06662,39.345316)"
     id="g4771"
     style="fill:#aa0000"><path
       inkscape:connector-curvature="0"
       id="path4767"
       d="M 26.3,21.8 29,20.7 C 24,19.2 26.3,4.5 26.3,4.5 c 0,0 -8.3,-4.7 -5,7 3.3,11.7 5,10.3 5,10.3 z"
       style="fill:#008000" /><path
       inkscape:connector-curvature="0"
       id="path4769"
       d="M 78,88.2 C 45.9,43.7 49.2,29.1 43.6,23.5 39.4,19.3 33.4,18.7 28.1,23.2 c -1.4,1.2 -3.5,-1.1 -4.9,0.3 -5.6,5.6 -4.9,14.1 0,20.5 44.2,57.6 59.5,50.7 54.8,44.2 z M 44.9,36.4 C 43.6,35.7 38.2,24.2 33.8,24.4 v -0.6 c 0,0 3.2,-2.8 6.7,0 3.5,2.8 3.8,9.3 5.3,10.7 1.5,1.4 0.3,2.6 -0.9,1.9 z"
       style="fill:#aa0000" /></g><g
     id="g4777"
     transform="matrix(5.9787585,1.4608091,-1.4608091,5.9787585,572.22788,39.345316)"
     style="fill:#aa0000"><path
       d="M 26.3,21.8 29,20.7 C 24,19.2 26.3,4.5 26.3,4.5 c 0,0 -8.3,-4.7 -5,7 3.3,11.7 5,10.3 5,10.3 z"
       id="path4773"
       inkscape:connector-curvature="0"
       style="fill:#008000" /><path
       d="M 78,88.2 C 45.9,43.7 49.2,29.1 43.6,23.5 39.4,19.3 33.4,18.7 28.1,23.2 c -1.4,1.2 -3.5,-1.1 -4.9,0.3 -5.6,5.6 -4.9,14.1 0,20.5 44.2,57.6 59.5,50.7 54.8,44.2 z M 44.9,36.4 C 43.6,35.7 38.2,24.2 33.8,24.4 v -0.6 c 0,0 3.2,-2.8 6.7,0 3.5,2.8 3.8,9.3 5.3,10.7 1.5,1.4 0.3,2.6 -0.9,1.9 z"
       id="path4775"
       inkscape:connector-curvature="0"
       style="fill:#aa0000" /></g></svg>