<?xml version="1.0" encoding="UTF-8" standalone="no"?>
<svg
   xmlns:dc="http://purl.org/dc/elements/1.1/"
   xmlns:cc="http://creativecommons.org/ns#"
   xmlns:rdf="http://www.w3.org/1999/02/22-rdf-syntax-ns#"
   xmlns:svg="http://www.w3.org/2000/svg"
   xmlns="http://www.w3.org/2000/svg"
   xmlns:sodipodi="http://sodipodi.sourceforge.net/DTD/sodipodi-0.dtd"
   xmlns:inkscape="http://www.inkscape.org/namespaces/inkscape"
   viewBox="0 0 793.70084 1122.5197"
   version="1.1"
   id="svg10"
   sodipodi:docname="git_logo.svg"
   inkscape:version="0.92.2 5c3e80d, 2017-08-06"
   width="210mm"
   height="297mm">
  <metadata
     id="metadata16">
    <rdf:RDF>
      <cc:Work
         rdf:about="">
        <dc:format>image/svg+xml</dc:format>
        <dc:type
           rdf:resource="http://purl.org/dc/dcmitype/StillImage" />
        <dc:title></dc:title>
      </cc:Work>
    </rdf:RDF>
  </metadata>
  <defs
     id="defs14" />
  <sodipodi:namedview
     pagecolor="#ffffff"
     bordercolor="#666666"
     borderopacity="1"
     objecttolerance="10"
     gridtolerance="10"
     guidetolerance="10"
     inkscape:pageopacity="0"
     inkscape:pageshadow="2"
     inkscape:window-width="1166"
     inkscape:window-height="575"
     id="namedview12"
     showgrid="false"
     inkscape:zoom="0.23314629"
     inkscape:cx="493.98176"
     inkscape:cy="642.7683"
     inkscape:window-x="33"
     inkscape:window-y="0"
     inkscape:window-maximized="0"
     inkscape:current-layer="svg10"
     units="mm" />
  <path
     d="M 744.27693,515.79879 434.59661,206.1569 c -17.8182,-17.83458 -46.74125,-17.83458 -64.58186,0 l -64.3017,64.30768 81.5646,81.5644 c 18.96188,-6.40184 40.69576,-2.10973 55.80351,13.00127 15.1861,15.20472 19.448,37.1243 12.88516,56.14989 l 78.61384,78.61337 c 19.01906,-6.55394 40.96283,-2.31956 56.14962,12.89399 21.2322,21.2263 21.2322,55.62024 0,76.85198 -21.23534,21.23851 -55.62982,21.23851 -76.87691,0 -15.96494,-15.97746 -19.91367,-39.43434 -11.82757,-59.10433 l -73.31603,-73.31629 -0.005,192.92983 c 5.17641,2.56263 10.06143,5.98288 14.37494,10.27771 21.22603,21.22358 21.22603,55.61142 0,76.87031 -21.23221,21.2229 -55.64224,21.2229 -76.85203,0 -21.22909,-21.25686 -21.22909,-55.64537 0,-76.87031 5.24647,-5.23731 11.31708,-9.20145 17.79457,-11.85849 V 453.74547 c -6.48055,-2.64616 -12.5441,-6.58043 -17.79825,-11.85917 -16.0801,-16.06775 -19.95292,-39.66792 -11.70617,-59.41462 L 274.10942,302.05279 61.787426,514.36876 c -17.840014,17.84748 -17.840014,46.77052 0,64.60645 L 371.44911,888.61849 c 17.82813,17.83381 46.74119,17.83381 64.5943,0 L 744.27319,580.43851 c 17.83438,-17.84341 17.83438,-46.77527 0,-64.61325"
     id="path8"
     inkscape:connector-curvature="0"
     style="fill:#f05133;stroke-width:6.22535563" />
</svg>
